<svg width="615" height="425" viewBox="0 0 615 425" fill="none" xmlns="http://www.w3.org/2000/svg">
<path d="M93.7769 273.699C86.9707 271.619 80.7316 266.704 80.7316 258.196C80.7316 246.852 94.9113 234.752 103.23 234.752C105.688 234.752 107.011 235.697 107.011 237.021C107.011 238.911 106.444 239.289 105.31 239.289C104.175 239.289 102.474 238.911 100.583 238.911C94.155 238.911 85.8363 251.011 85.8363 256.872C85.8363 263.868 89.2394 268.594 95.8566 270.674C119.3 238.155 159.949 206.96 198.329 206.96C213.832 206.96 220.071 212.253 220.071 220.005C220.071 239.289 181.313 272.943 150.496 272.943C143.5 272.943 139.53 270.296 137.829 266.704C126.296 271.241 112.872 274.266 101.907 274.266H98.8816C88.2941 289.769 81.866 305.461 81.866 317.561C81.866 330.796 89.8066 339.871 108.524 339.871C139.53 339.871 159.382 321.154 159.382 321.154C159.949 320.776 160.516 320.776 160.894 320.776C161.84 320.776 162.218 321.343 162.218 321.91C162.218 322.666 161.651 323.611 160.516 324.368C153.332 330.04 134.425 343.274 105.31 343.274C84.5128 343.274 75.8159 333.254 75.8159 318.885C75.8159 306.218 82.6222 289.769 93.7769 273.699ZM165.243 246.096C165.243 251.957 155.222 259.33 142.177 265.002C143.5 267.649 146.904 269.539 152.576 269.539C177.721 269.539 215.155 240.424 215.155 223.219C215.155 216.035 208.538 210.93 191.901 210.93C159.382 210.93 122.704 240.424 100.961 271.241H102.663C114.574 271.241 127.052 268.027 137.072 263.868V262.355C137.072 253.28 153.332 242.314 161.083 242.314C163.541 242.314 165.243 243.449 165.243 246.096ZM141.61 261.788V261.977C151.819 257.061 158.815 251.389 158.815 247.797C158.815 246.663 158.058 246.096 156.924 246.096C152.386 246.096 141.61 254.036 141.61 261.788ZM192.199 335.522C192.199 334.766 192.01 334.01 191.632 334.01C191.443 334.01 191.254 334.01 191.065 334.199C191.065 334.199 181.611 340.438 173.86 340.438C167.621 340.438 164.785 337.224 164.785 332.876C164.785 323.233 178.397 307.73 196.169 307.73C203.921 307.73 207.135 312.457 207.135 312.457C207.324 312.457 207.513 312.268 210.16 309.621C210.538 309.054 211.862 307.541 213.185 307.541C214.13 307.541 214.887 308.486 214.887 309.243C214.887 310.188 214.13 310.944 214.13 310.944C212.24 313.402 200.329 327.771 199.194 329.472C198.627 330.229 197.682 332.876 197.682 334.577C197.682 335.712 198.438 336.657 200.329 336.657C203.165 336.657 208.08 334.577 215.832 327.582C216.21 327.015 216.588 326.826 216.966 326.826C217.344 326.826 217.722 327.204 217.722 327.771C217.722 330.418 205.244 339.871 196.358 339.871C193.901 339.871 192.199 338.737 192.199 335.522ZM176.696 337.035C187.472 337.035 202.03 322.477 203.732 316.238C203.732 313.213 199.005 310.755 194.468 310.755C181.99 310.755 171.213 324.368 171.213 331.93C171.213 334.955 172.725 337.035 176.696 337.035ZM230.323 315.482C231.269 315.293 232.403 314.915 243.936 308.676C244.314 308.486 244.881 308.486 245.259 308.486C245.826 308.486 246.205 308.676 246.205 309.054C246.205 309.243 246.205 309.432 246.015 309.81C244.314 312.268 240.533 316.049 240.533 318.696C240.533 320.965 242.423 322.477 244.881 322.477C246.961 322.477 249.23 320.965 249.23 320.965C249.797 320.965 250.175 321.343 250.175 321.91C250.175 322.099 250.175 322.288 249.986 322.477C249.04 323.233 244.125 324.935 241.289 324.935C238.642 324.935 235.05 323.801 235.05 320.965C235.05 318.318 236.751 316.994 236.751 315.293C236.751 315.104 236.751 314.915 236.373 314.915C235.806 315.104 228.244 319.83 224.462 322.666L211.606 339.115C210.661 340.249 209.904 340.627 209.148 340.627C208.203 340.627 207.636 339.871 207.636 338.926C207.636 338.169 207.825 337.413 208.581 336.657C209.337 335.712 214.064 329.283 218.79 323.233C224.462 316.238 229.756 308.676 230.323 307.919C231.079 306.974 232.025 306.407 233.159 306.407C234.294 306.407 234.861 307.163 234.861 308.297C234.861 309.243 231.079 314.726 230.323 315.482ZM273.846 306.785C281.598 306.785 284.812 312.268 284.812 312.268C284.812 313.78 283.866 314.536 282.921 314.536C282.165 314.536 281.598 314.158 281.22 313.024C278.005 310.377 274.98 309.81 272.145 309.81C259.477 309.81 250.024 322.855 250.024 330.985C250.024 334.766 252.104 337.413 256.452 337.413C272.334 337.413 287.27 317.561 295.588 296.197C283.677 292.605 274.224 280.505 274.224 269.161C274.224 259.519 280.274 242.503 292.752 242.503C301.26 242.503 307.499 252.146 307.499 263.679C307.499 272.375 305.041 283.341 301.071 294.307C302.584 294.685 303.907 294.685 305.609 294.685C317.142 294.685 324.893 287.69 328.107 284.286C328.674 283.719 330.376 281.829 331.51 281.829C331.888 281.829 332.267 282.396 332.267 282.963C332.267 283.908 331.51 285.043 330.754 285.799C323.759 292.983 313.927 297.332 302.962 297.332C302.016 297.332 300.882 297.332 299.937 297.143C290.862 319.452 274.224 340.816 253.616 340.816C247.944 340.816 245.298 337.035 245.298 331.93C245.298 321.91 255.885 306.785 273.846 306.785ZM278.195 265.758C278.195 276.346 285.19 288.824 296.912 293.172C300.504 282.774 302.773 272.564 302.773 264.057C302.773 253.469 299.37 246.096 291.24 246.096C280.463 246.096 278.195 261.788 278.195 265.758ZM301.336 320.965C296.042 320.965 293.206 326.069 293.206 330.796C293.206 334.955 295.286 338.737 300.201 338.737C307.386 338.737 310.222 332.876 312.49 325.88C308.331 323.044 305.117 320.965 301.336 320.965ZM364.483 287.311C364.483 292.416 369.02 295.252 373.936 295.252C384.145 295.252 389.25 286.555 389.25 277.102C389.25 272.943 388.115 268.594 386.036 264.624C372.99 268.216 364.483 279.371 364.483 287.311ZM302.281 319.074C306.629 319.074 309.843 320.776 313.436 323.044C316.272 313.969 319.297 304.516 330.64 304.516C333.854 304.516 338.392 306.218 338.392 309.621C338.392 312.268 335.934 316.049 331.964 316.049C331.207 316.049 330.64 315.86 330.451 315.104C330.451 313.78 331.775 312.835 332.531 312.457C333.098 312.268 333.665 310.944 333.665 309.81C333.665 308.297 332.531 306.785 330.262 306.785C322.322 306.785 320.809 316.616 317.595 325.691C323.834 329.472 332.342 333.254 348.601 333.254C388.494 333.254 418.744 300.735 418.744 280.127C418.744 270.485 411.748 263.3 394.922 263.3C393.031 263.3 391.14 263.489 389.439 263.868C391.708 268.216 393.031 273.132 393.031 277.669C393.031 288.257 386.792 297.899 373.936 297.899C367.508 297.899 361.836 293.929 361.836 287.311C361.836 278.614 370.722 266.514 384.712 262.166C380.742 256.494 374.314 252.146 365.239 252.146C358.433 252.146 351.815 253.847 345.765 258.196C345.009 258.763 344.253 258.952 343.497 258.952C342.551 258.952 341.795 258.574 341.795 258.007C341.795 257.439 342.362 256.872 343.497 255.927C350.114 251.011 358.054 249.499 365.239 249.499C375.637 249.499 383.389 254.604 387.926 261.41C390.195 260.843 392.464 260.654 394.922 260.654C414.395 260.654 422.714 269.539 422.714 281.072C422.714 303.382 391.708 335.901 348.601 335.901C332.531 335.901 323.267 332.119 316.65 328.338C313.814 335.144 309.276 341.005 299.445 341.005C291.693 341.005 288.29 336.657 288.29 331.741C288.29 325.691 293.584 319.074 302.281 319.074Z" fill="#343434"/>
<path d="M95.9547 48.5575C95.9547 50.4482 95.3875 50.8263 94.2531 50.8263C93.1187 50.8263 91.4172 50.4482 89.5265 50.4482C83.0984 50.4482 74.7796 62.5482 74.7796 68.4091C74.7796 75.4045 78.1828 80.131 84.8 82.2107C108.622 49.1247 149.46 17.1731 189.541 17.1731C206.178 17.1731 212.607 22.0887 212.607 29.4622C212.607 48.7466 167.61 83.7232 141.519 83.7232C134.334 83.7232 130.553 80.6982 129.419 76.3498C117.319 82.0217 103.139 86.3701 91.039 86.3701C89.5265 86.3701 88.2031 86.3701 86.6906 86.1811C76.2921 101.873 70.2421 117.566 70.2421 129.476C70.2421 142.144 77.0484 150.652 93.1187 150.652C106.164 150.652 123.558 143.278 140.195 133.258C163.261 104.331 183.302 79.942 197.103 79.942C199.183 79.942 199.939 81.2654 199.939 83.1561C199.939 91.0967 175.739 113.973 147.947 131.745C136.225 146.681 122.802 163.13 108.622 178.444C115.995 181.091 120.155 185.061 122.234 189.409C131.12 185.439 142.275 182.603 155.51 182.603C163.828 182.603 169.878 183.927 171.391 184.494C172.714 184.872 173.281 185.628 173.281 186.384C173.281 187.141 172.714 187.708 171.769 187.708C171.391 187.708 171.013 187.519 170.635 187.33C166.097 185.439 158.156 184.872 154.375 184.872C142.464 184.872 131.688 187.897 123.18 192.056C123.369 193.191 123.558 194.325 123.558 195.649C123.558 206.425 112.97 217.391 102.572 217.391C99.1688 217.391 97.6562 215.689 97.6562 213.231C97.6562 207.938 104.652 198.484 117.508 191.489C115.806 187.519 112.403 183.738 106.164 181.28C79.6953 209.45 50.5796 232.894 23.3545 232.894C10.6873 232.894 5.20446 228.167 5.20446 221.361C5.20446 204.534 39.6139 175.23 84.989 175.23C92.5515 175.23 98.7906 175.797 103.895 177.12C114.672 164.831 125.259 151.786 135.28 139.308C118.642 148.572 101.816 155.189 88.7703 155.189C71.1874 155.189 63.814 146.303 63.814 132.88C63.814 119.834 70.9984 102.44 82.7203 85.2357C75.914 83.1561 69.6749 78.2404 69.6749 69.7326C69.6749 58.3888 83.8547 46.2888 92.1734 46.2888C94.6312 46.2888 95.9547 47.2341 95.9547 48.5575ZM155.51 55.3638C155.51 59.9013 146.245 67.6529 133.389 74.2701C134.334 77.8623 137.17 80.5092 142.842 80.5092C162.505 80.5092 206.367 48.1794 206.367 30.2184C206.367 24.3575 201.452 20.3871 188.596 20.3871C149.27 20.3871 110.702 51.3935 88.7703 83.1561C90.4719 83.3451 92.5515 83.5342 94.6312 83.5342C104.841 83.5342 118.075 78.9967 129.041 73.7029V73.1357C129.041 64.0607 138.116 52.7169 151.917 52.7169C153.619 52.7169 155.51 53.4732 155.51 55.3638ZM25.0561 229.491C50.5796 229.491 76.6703 207.181 101.438 179.767C96.7109 178.444 90.85 177.688 83.6656 177.688C44.3405 177.688 10.8763 205.858 10.8763 220.605C10.8763 225.899 15.2248 229.491 25.0561 229.491ZM191.999 84.4795C185.381 84.4795 171.769 101.684 153.997 124.183C175.928 108.869 193.511 91.6639 193.511 85.8029C193.511 84.8576 192.944 84.4795 191.999 84.4795ZM118.831 197.539C118.831 196.594 118.642 195.459 118.453 194.514C108.622 200.186 102.572 206.803 102.572 210.584C102.572 212.286 103.706 213.231 106.542 213.231C112.781 213.231 118.831 205.669 118.831 197.539ZM148.136 56.6872C139.628 56.6872 133.389 64.8169 133.2 71.6232C142.464 66.5185 149.27 60.8466 149.27 57.6326C149.27 57.0654 148.703 56.6872 148.136 56.6872ZM171.42 139.686C172.366 139.497 173.5 139.119 185.033 132.88C185.411 132.691 185.978 132.691 186.356 132.691C186.924 132.691 187.302 132.88 187.302 133.258C187.302 133.447 187.302 133.636 187.113 134.014C185.411 136.472 181.63 140.253 181.63 142.9C181.63 145.169 183.52 146.681 185.978 146.681C188.058 146.681 190.327 145.169 190.327 145.169C190.894 145.169 191.272 145.547 191.272 146.114C191.272 146.303 191.272 146.492 191.083 146.681C190.138 147.437 185.222 149.139 182.386 149.139C179.739 149.139 176.147 148.005 176.147 145.169C176.147 142.522 177.848 141.198 177.848 139.497C177.848 139.308 177.848 139.119 177.47 139.119C176.903 139.308 169.341 144.034 165.559 146.87L152.703 163.319C151.758 164.453 151.002 164.831 150.245 164.831C149.3 164.831 148.733 164.075 148.733 163.13C148.733 162.373 148.922 161.617 149.678 160.861C150.434 159.916 155.161 153.487 159.888 147.437C165.559 140.442 170.853 132.88 171.42 132.123C172.177 131.178 173.122 130.611 174.256 130.611C175.391 130.611 175.958 131.367 175.958 132.501C175.958 133.447 172.177 138.93 171.42 139.686ZM218.522 137.228C218.522 146.87 203.586 153.487 193.188 156.891C194.133 159.537 196.78 161.239 201.506 161.239C207.935 161.239 215.686 158.781 223.438 151.786C223.816 151.219 224.194 151.03 224.572 151.03C224.95 151.03 225.328 151.408 225.328 151.975C225.328 154.622 213.228 164.453 199.994 164.453C190.73 164.453 187.138 160.294 187.138 155C187.138 145.169 199.238 131.367 211.905 131.367C215.686 131.367 218.522 133.069 218.522 137.228ZM192.621 153.677V155C203.019 151.03 213.796 145.358 213.796 138.741C213.796 135.905 211.905 134.581 209.447 134.581C201.128 134.581 192.621 145.736 192.621 153.677ZM253.787 137.228C253.787 146.87 238.851 153.487 228.452 156.891C229.398 159.537 232.045 161.239 236.771 161.239C243.199 161.239 250.951 158.781 258.702 151.786C259.081 151.219 259.459 151.03 259.837 151.03C260.215 151.03 260.593 151.408 260.593 151.975C260.593 154.622 248.493 164.453 235.259 164.453C225.995 164.453 222.402 160.294 222.402 155C222.402 145.169 234.502 131.367 247.17 131.367C250.951 131.367 253.787 133.069 253.787 137.228ZM227.885 153.677V155C238.284 151.03 249.06 145.358 249.06 138.741C249.06 135.905 247.17 134.581 244.712 134.581C236.393 134.581 227.885 145.736 227.885 153.677ZM269.767 158.97C273.359 157.458 277.141 155.189 280.922 151.786C281.3 151.219 281.678 151.03 282.056 151.03C282.434 151.03 282.812 151.408 282.812 151.975C282.812 153.677 278.086 158.214 271.28 161.239C267.12 163.13 263.906 163.697 261.637 163.697C256.533 163.697 255.398 160.294 255.398 157.836C255.398 152.353 266.364 137.417 277.141 124.183C272.792 124.183 269.011 124.183 266.364 123.994C264.284 123.994 263.15 123.426 263.15 122.859C263.15 122.103 264.851 121.725 266.364 121.536H279.409C287.728 111.326 295.291 102.819 296.992 100.55C297.748 99.7936 298.883 99.2264 300.017 99.2264C302.475 99.2264 302.286 100.928 302.286 100.928C302.286 101.684 301.908 102.251 301.341 102.63C298.126 105.655 291.32 113.217 284.136 121.725H299.828C301.341 121.725 302.097 122.292 302.097 122.859C302.097 123.616 300.773 124.372 297.559 124.372H281.867C271.09 137.228 260.314 151.408 260.314 155.756C260.314 157.647 261.259 159.916 264.851 159.916C266.175 159.916 267.687 159.537 269.767 158.97ZM281.524 158.781C281.524 159.916 282.281 160.861 284.171 160.861C287.007 160.861 291.923 158.781 299.674 151.786C300.053 151.219 300.431 151.03 300.809 151.03C301.187 151.03 301.565 151.408 301.565 151.975C301.565 154.622 289.087 164.075 280.201 164.075C277.743 164.075 276.042 162.941 276.042 159.727C276.042 155.756 280.579 151.597 283.037 148.383C288.52 141.955 296.271 132.312 297.217 131.745C297.784 131.178 298.729 130.611 299.674 130.611C300.62 130.611 301.754 131.556 301.754 132.501C301.754 133.258 301.187 133.825 300.62 134.392L286.44 150.462C283.982 153.109 281.524 155.945 281.524 158.781ZM313.476 112.65C314.799 112.65 316.123 114.162 316.123 115.297C316.123 116.998 314.421 119.078 313.476 119.834C312.72 120.401 311.774 120.78 310.829 120.78C309.506 120.78 308.182 120.212 308.182 118.322C308.182 116.431 310.64 112.65 313.476 112.65ZM316.99 135.905L315.477 136.85C315.477 136.85 316.801 136.094 316.99 135.905ZM318.124 132.501C318.124 133.447 316.234 136.094 315.477 136.85C323.796 131.556 329.279 130.044 332.871 130.044C339.299 130.044 339.678 135.337 339.678 135.337C339.678 143.467 324.931 152.353 324.931 158.781C324.931 159.916 325.687 160.861 327.577 160.861C330.413 160.861 335.329 158.781 343.081 151.786C343.459 151.408 344.026 151.03 344.404 151.03C344.782 151.03 344.971 151.408 344.971 151.975C344.971 154.622 332.493 164.075 323.607 164.075C321.149 164.075 319.448 162.941 319.448 159.727C319.448 152.353 333.817 142.9 333.817 137.039C333.817 134.959 330.792 134.392 329.279 134.392C323.607 134.581 317.557 138.362 312.641 141.009C310.562 142.522 296.193 161.428 294.87 163.319C293.924 164.453 293.168 164.831 292.412 164.831C291.466 164.831 290.899 164.075 290.899 163.13C290.899 162.373 291.088 161.617 291.845 160.861C292.601 159.916 297.327 153.487 302.054 147.437C307.726 140.442 313.02 132.88 313.587 132.123C314.343 131.178 315.288 130.611 316.423 130.611C317.557 130.611 318.124 131.367 318.124 132.501ZM391.956 131.745C393.28 131.745 393.28 133.258 393.28 133.258C393.28 135.526 366.433 168.423 359.438 176.931C371.159 178.444 376.831 186.384 376.831 193.758C376.831 200.942 371.538 207.559 360.95 207.559C360.005 207.559 359.059 207.559 357.925 207.37C356.223 206.992 355.467 206.614 355.467 205.858C355.467 205.291 355.845 205.102 356.223 205.102C356.791 205.102 357.925 205.669 360.383 205.669C369.08 205.669 373.428 200.564 373.428 194.703C373.428 188.275 368.134 181.28 357.358 179.578C341.855 197.161 326.352 213.988 310.281 213.988C303.286 213.988 300.261 211.53 300.261 207.938C300.261 197.35 325.595 176.931 354.711 176.742L368.513 158.97C364.731 161.239 358.87 163.319 353.955 163.319C346.392 163.319 343.178 159.727 343.178 154.811C343.178 145.169 355.845 130.611 372.672 130.611C379.289 130.611 384.772 132.88 385.906 137.795C387.23 136.283 388.553 134.203 388.742 133.825C389.877 132.123 391.2 131.745 391.956 131.745ZM311.794 211.719C322.003 211.719 335.994 199.43 352.631 179.2H352.442C325.973 179.2 306.311 198.484 306.311 207.37C306.311 210.017 308.012 211.719 311.794 211.719ZM371.916 133.636C358.87 133.636 348.661 146.303 348.661 154.055C348.661 157.647 350.741 160.105 355.467 160.105C362.652 160.105 373.05 153.298 373.05 153.298L383.259 140.442C382.881 137.984 380.802 133.636 371.916 133.636Z" fill="#343434"/>
<path d="M284.902 6.17523C293.446 6.17523 298.15 9.24723 300.166 13.0872C307.75 10.6872 315.91 9.63123 321.766 9.63123C326.758 9.63123 333.094 10.0152 339.238 10.4952C343.75 7.71123 348.55 5.88723 353.734 5.21523C354.79 5.21523 354.694 5.59923 354.694 5.59923V5.79123C354.694 6.55923 354.022 6.36723 352.39 6.84723C349.03 7.80723 345.958 9.15123 342.982 10.8792C348.742 11.2632 354.022 11.6472 357.67 11.6472C373.318 11.6472 378.886 7.71123 380.23 7.71123C381.19 7.71123 381.67 8.19123 381.67 8.67123C381.67 10.2072 368.326 13.9512 353.83 13.9512C350.278 13.9512 345.094 13.5672 339.526 12.9912C312.646 31.4232 297.766 76.9272 258.022 76.9272C243.91 76.9272 237.862 70.3032 237.862 63.1992C237.862 54.9432 245.926 46.1112 258.406 46.1112C262.438 46.1112 264.742 47.7432 265.798 50.0472C270.406 46.6872 276.166 44.0952 281.446 44.0952C283.27 44.0952 284.902 44.4792 286.246 44.9592C286.534 45.0552 286.726 45.4392 286.726 45.8232C286.726 46.2072 286.534 46.4952 285.862 46.4952C284.71 46.4952 283.846 45.6312 281.254 45.6312C276.262 45.6312 270.598 48.2232 266.182 51.2952C266.374 51.9672 266.47 52.7352 266.47 53.4072C266.47 57.9192 263.398 62.9112 259.654 62.9112C257.638 62.9112 256.774 62.1432 256.774 60.8952C256.774 58.6872 259.654 54.8472 263.974 51.3912C263.014 49.2792 261.094 47.6472 257.734 47.6472C247.27 47.6472 240.646 55.3272 240.646 62.5272C240.646 69.0552 246.118 75.2952 259.174 75.2952C293.542 75.2952 311.11 30.8472 336.166 12.7032C329.734 12.0312 323.014 11.4552 317.83 11.4552C312.838 11.4552 306.598 12.4152 300.742 14.2392C301.222 15.5832 301.414 16.9272 301.414 18.2712C301.414 18.7512 301.414 19.3272 301.318 19.8072C302.758 19.4232 304.198 19.1352 305.83 19.1352C308.806 19.1352 310.15 20.2872 310.15 22.0152C310.15 27.6792 296.902 39.7752 286.63 39.7752C279.91 39.7752 279.142 35.5512 279.142 33.8232C279.142 23.7432 287.782 17.4072 297.862 13.7592C296.038 10.3032 291.91 7.51923 284.23 7.51923C260.71 7.51923 249.67 29.1192 249.67 29.1192C249.286 29.6952 248.998 29.8872 248.71 29.8872C248.326 29.8872 248.038 29.3112 248.038 28.8312C248.038 28.8312 258.598 6.17523 284.902 6.17523ZM299.206 19.0392C299.206 17.6952 298.918 16.3512 298.438 15.0072C289.51 18.3672 281.926 24.0312 281.926 32.5752C281.926 36.4152 284.902 38.1432 287.494 38.1432C296.134 38.1432 307.462 27.1992 307.462 22.5912C307.462 21.3432 306.598 20.5752 304.678 20.5752C303.43 20.5752 302.278 20.8632 301.03 21.2472C300.07 25.7592 296.806 29.5992 293.35 29.5992C292.198 29.5992 291.622 29.0232 291.622 28.1592C291.622 26.1432 294.502 22.4952 299.11 20.5752C299.206 20.0952 299.206 19.5192 299.206 19.0392ZM260.998 60.6072C263.206 60.6072 264.742 57.8232 264.742 54.7512C264.742 53.9832 264.646 53.3112 264.454 52.5432C261.19 55.1352 258.982 57.8232 258.982 59.3592C258.982 60.1272 259.654 60.6072 260.998 60.6072ZM294.598 27.2952C296.326 27.2952 298.054 25.0872 298.822 22.1112C295.942 23.5512 293.734 25.7592 293.734 26.7192C293.734 27.1032 294.022 27.2952 294.598 27.2952ZM344.742 27.7752C342.342 27.7752 334.374 36.1272 326.31 45.1512C335.142 41.4072 345.51 30.7512 345.51 28.4472C345.51 28.1592 345.318 27.7752 344.742 27.7752ZM318.438 45.9192C319.206 46.2072 320.07 46.3992 320.934 46.3992C321.51 46.3992 322.086 46.3032 322.662 46.2072C332.358 35.7432 342.63 25.7592 346.758 25.7592C347.526 25.7592 348.486 26.4312 348.486 27.3912C348.486 30.8472 334.854 43.8072 324.39 47.3592C321.318 50.8152 317.478 55.1352 314.79 58.3032C318.246 56.1912 320.742 55.5192 322.374 55.5192C325.638 55.5192 326.022 57.7272 326.022 58.2072C326.022 62.3352 318.534 66.8472 318.534 70.1112C318.534 70.6872 318.918 71.1672 319.878 71.1672C321.318 71.1672 323.814 70.1112 327.75 66.5592C327.942 66.3672 328.23 66.1752 328.422 66.1752C328.614 66.1752 328.71 66.3672 328.71 66.6552C328.71 67.9992 322.374 72.7992 317.862 72.7992C316.614 72.7992 315.75 72.2232 315.75 70.5912C315.75 66.8472 323.046 62.0472 323.046 59.0712C323.046 58.0152 321.51 57.7272 320.742 57.7272C317.862 57.8232 314.694 59.6472 312.294 61.0872C311.238 61.8552 303.942 71.4552 303.27 72.4152C302.79 72.9912 302.406 73.1832 302.022 73.1832C301.542 73.1832 301.254 72.7992 301.254 72.3192C301.254 71.9352 301.35 71.5512 301.734 71.1672C302.118 70.6872 304.422 67.4232 306.918 64.3512C310.47 59.9352 316.038 53.6952 321.03 48.0312H320.358C318.918 48.0312 317.382 47.8392 317.382 46.9752C317.382 46.4952 317.958 45.9192 318.438 45.9192ZM342.68 59.9352C342.68 58.4952 341.72 57.8232 340.472 57.8232C335.288 57.8232 330.968 62.5272 329.624 68.0952C336.44 66.2712 342.68 63.1992 342.68 59.9352ZM356.12 62.7192C356.12 65.3112 358.424 66.7512 360.92 66.7512C366.104 66.7512 368.696 62.3352 368.696 57.5352C368.696 55.4232 368.12 53.2152 367.064 51.1992C360.44 53.0232 356.12 58.6872 356.12 62.7192ZM329.144 71.9352C329.144 79.0392 334.136 86.0472 348.056 86.0472C368.312 86.0472 383.672 69.5352 383.672 59.0712C383.672 54.1752 380.12 50.5272 371.576 50.5272C370.616 50.5272 369.656 50.6232 368.792 50.8152C369.944 53.0232 370.616 55.5192 370.616 57.8232C370.616 63.1992 367.448 68.0952 360.92 68.0952C357.656 68.0952 354.776 66.0792 354.776 62.7192C354.776 58.3032 359.288 52.1592 366.392 49.9512C364.376 47.0712 361.112 44.8632 356.504 44.8632C353.048 44.8632 349.688 45.7272 346.616 47.9352C346.232 48.2232 345.848 48.3192 345.464 48.3192C344.984 48.3192 344.6 48.1272 344.6 47.8392C344.6 47.5512 344.888 47.2632 345.464 46.7832C348.824 44.2872 352.856 43.5192 356.504 43.5192C361.784 43.5192 365.72 46.1112 368.024 49.5672C369.176 49.2792 370.328 49.1832 371.576 49.1832C381.464 49.1832 385.688 53.6952 385.688 59.5512C385.688 70.8792 369.944 87.3912 348.056 87.3912C332.792 87.3912 326.552 79.4232 326.552 71.5512C326.552 63.7752 332.504 56.1912 341.72 56.1912C343.64 56.1912 345.08 57.0552 345.08 59.1672C345.08 63.9672 336.728 67.9992 329.336 69.4392C329.24 70.2072 329.144 71.0712 329.144 71.9352Z" fill="#343434"/>
<path d="M380.336 314.07C387.569 309.894 391.826 311.316 394.226 315.473C406.082 336.008 384.625 365.467 391.585 377.522C392.545 379.185 394.678 379.616 396.507 378.56C401.08 375.92 407.111 363.902 412.243 350.519C412.02 332.469 417.426 305.736 421.832 303.192C422.83 302.616 423.319 302.888 423.847 303.802C426.679 308.708 421.643 330.128 414.239 349.367C413.952 354.632 415.048 359.985 417.256 363.81C419.8 368.216 423.763 370.473 428.502 367.737C429.25 367.305 429.951 366.79 430.686 366.143C431.351 365.759 431.78 365.734 431.924 365.983C432.068 366.232 431.879 366.674 431.559 367.08C430.456 368.05 429.472 368.84 428.474 369.416C422.82 372.68 418.057 369.998 415.225 365.093C413.449 362.017 412.348 357.997 412.318 353.913C406.959 367.094 400.543 378.447 395.223 381.519C393.56 382.479 390.534 382.23 389.142 379.819C382.086 367.598 402.912 335.51 392.448 317.386C390.288 313.645 386.521 312.494 380.202 316.142C376.211 318.446 372.832 321.617 370.121 325.177C371.554 326.124 372.667 327.476 373.531 328.973C373.723 329.305 373.867 329.555 373.976 329.935C374.817 328.895 375.802 328.105 376.966 327.433C380.541 325.369 382.962 326.299 384.45 328.876C388.77 336.359 384.83 358.143 374.272 364.239C367.787 367.983 363.447 366.609 361.095 362.536C356.823 355.136 359.178 338.479 367.838 325.831C365.176 324.485 361.569 324.573 357.245 327.069C345.689 333.741 336.459 351.929 336.835 358.917C336.851 359.905 336.58 360.394 336.247 360.586C335.914 360.778 335.521 360.673 335.281 360.257C335.137 360.008 335.028 359.627 335.038 359.067C335.822 350.634 344.352 332.961 357.155 325.569C362.061 322.737 365.978 322.803 368.998 324.385C372.064 320.287 375.846 316.662 380.336 314.07ZM371.009 342.844C369.761 340.683 370.214 335.322 373.017 331.154L372.585 330.406C371.721 328.909 370.56 327.474 369.127 326.527C360.997 337.983 359.029 353.197 362.965 360.015C365.125 363.756 369.072 365.024 374.725 361.76C383.621 356.624 386.513 337.441 382.673 330.79C381.377 328.545 379.217 327.685 376.308 329.365C375.559 329.797 374.99 330.347 374.504 330.85C376.527 335.889 376.196 341.845 373.453 343.429C372.372 344.053 371.537 343.759 371.009 342.844ZM420.721 307.603C418.725 308.755 414.613 329.087 414.16 345.2C419.97 328.766 423.895 311.756 421.687 307.932C421.495 307.6 421.053 307.411 420.721 307.603ZM373.385 341.583C375.131 340.575 375.171 336.229 373.462 332.117C371.381 335.424 371.459 339.591 372.323 341.088C372.611 341.587 372.969 341.823 373.385 341.583ZM429.726 343.419L429.301 344.219C429.301 344.219 429.691 343.55 429.726 343.419ZM429.361 341.634C429.601 342.05 429.441 343.694 429.301 344.219C431.615 339.779 433.642 337.722 435.222 336.81C438.048 335.178 439.558 337.409 439.558 337.409C441.622 340.984 437.394 348.636 439.026 351.463C439.314 351.961 439.886 352.185 440.718 351.705C441.965 350.985 443.598 348.823 445.231 343.778C445.301 343.516 445.455 343.206 445.621 343.11C445.787 343.014 445.966 343.132 446.11 343.382C446.782 344.546 443.695 351.87 439.788 354.126C438.707 354.75 437.671 354.684 436.855 353.27C434.983 350.028 438.901 342.223 437.413 339.646C436.885 338.731 435.411 339.25 434.746 339.634C432.3 341.157 430.599 344.356 429.11 346.768C428.579 347.961 427.061 359.923 426.959 361.09C426.831 361.829 426.594 362.187 426.262 362.379C425.846 362.619 425.405 362.43 425.165 362.015C424.973 361.682 424.864 361.302 425.004 360.777C425.097 360.169 425.543 356.143 426.086 352.282C426.804 347.766 427.212 343.097 427.269 342.62C427.362 342.012 427.634 341.523 428.132 341.235C428.631 340.947 429.073 341.136 429.361 341.634ZM442.898 334.262L448.135 331.238C451.378 310.743 456.158 285.037 465.054 279.901C467.714 278.365 469.384 278.953 470.248 280.45C471.112 281.946 470.165 283.379 469.085 284.003C468.336 284.435 467.396 284.535 467.06 283.953C466.484 282.955 467.706 281.807 467.274 281.058C467.034 280.643 465.738 281.279 465.24 281.567C457.757 285.887 453.46 310.317 450.332 329.859L455.736 326.739C456.401 326.355 456.878 326.412 457.022 326.662C457.214 326.994 456.872 327.746 456.005 328.357L450.019 331.813C448.341 342.537 446.806 353.511 444.551 363.238C446.588 363.502 448.117 364.615 449.1 365.932C450.497 364.128 452.204 362.477 453.784 361.565C456.028 360.269 459.978 359.43 461.034 361.259C461.178 361.508 461.239 361.806 461.12 361.985L460.954 362.081C460.372 362.417 458.731 360.15 453.909 362.934C452.745 363.606 451.025 365.042 449.628 366.847C451.753 370.719 450.82 375.248 448.077 376.832C447.245 377.312 446.244 377.114 445.716 376.2C444.564 374.204 445.928 370.423 448.224 367.103C447.289 365.869 446.106 364.779 444.283 364.501C441.325 376.85 437.404 386.763 431.169 390.363C428.009 392.187 425.959 391.708 424.903 389.879C422.167 385.14 426.285 371.344 436.678 365.344C439.089 363.952 441.158 363.312 442.872 363.209C444.855 353.972 446.284 343.392 447.858 333.061L442.953 335.893C442.454 336.181 442.06 336.076 441.916 335.826C441.724 335.494 441.983 334.79 442.898 334.262ZM431.127 388.946C436.614 385.778 440.049 376.368 442.604 364.473C440.937 364.659 438.916 365.382 436.422 366.822C427.942 371.718 424.997 384.282 427.301 388.272C428.021 389.519 429.298 390.002 431.127 388.946ZM447.65 374.75C449.847 373.371 449.952 370.096 448.848 368.184L448.752 368.018C447.166 370.263 446.201 372.816 447.209 374.562C447.305 374.728 447.484 374.846 447.65 374.75ZM458.345 338.757C455.849 334.433 457.842 324.637 462.782 321.673C462.705 320.388 463.533 319.134 464.78 318.414C466.443 317.454 468.944 317.562 470.624 320.472C471.056 321.22 471.405 322.016 471.587 322.908C475.328 320.748 478.71 315.47 478.886 314.814C479.302 314.574 479.542 314.99 479.542 314.99C479.638 315.156 479.603 315.288 479.568 315.419C478.826 317.399 475.441 321.903 471.879 324.181C472.725 329.679 470.351 336.703 465.362 339.583C461.871 341.599 459.545 340.835 458.345 338.757ZM470.299 325.093C467.827 326.188 465.278 325.997 463.384 323.1C459.489 325.57 458.772 332.968 460.788 336.459C461.796 338.205 463.478 339.008 465.806 337.664C468.467 336.128 471.382 330.232 470.299 325.093ZM464.816 321.164C466.256 323.658 468.009 324.198 469.912 323.654C469.755 323.19 469.515 322.775 469.227 322.276C467.835 319.865 466.012 319.587 465.18 320.067C464.765 320.307 464.576 320.749 464.816 321.164ZM484.802 325.145C485.997 323.567 487.084 321.61 487.883 319.153C487.905 318.808 488.024 318.629 488.19 318.533C488.356 318.437 488.618 318.507 488.762 318.756C489.194 319.505 488.268 322.7 486.043 325.758C484.694 327.646 483.424 328.711 482.427 329.287C480.182 330.583 478.819 329.375 478.195 328.294C475.603 323.804 483.885 279.781 484.335 276.529C484.476 276.004 484.831 275.467 485.329 275.179C486.41 274.555 486.759 275.351 486.759 275.351C486.951 275.683 486.929 276.029 486.775 276.339C485.204 281.681 477.909 322.806 479.829 326.131C480.309 326.963 481.301 327.72 482.88 326.808C483.462 326.472 484.031 325.922 484.802 325.145ZM494.509 303.134C497.918 301.166 500.723 302.761 500.723 302.761C501.107 303.426 500.884 303.999 500.468 304.239C500.135 304.431 499.79 304.408 499.336 304.006C497.25 303.658 495.776 304.176 494.529 304.896C488.959 308.112 488.114 316.249 490.178 319.824C491.138 321.486 492.724 322.122 494.637 321.018C501.62 316.986 503.148 304.465 501.382 292.958C495.232 294.403 488.004 291.482 485.124 286.493C482.676 282.253 481.016 273.235 486.503 270.067C490.244 267.907 495.436 270.563 498.364 275.634C500.572 279.459 502.275 284.905 503.313 290.735C504.074 290.517 504.656 290.181 505.405 289.749C510.476 286.821 512.109 281.777 512.658 279.465C512.763 279.071 513.032 277.808 513.531 277.52C513.697 277.424 514.007 277.577 514.151 277.827C514.391 278.242 514.347 278.933 514.206 279.458C512.954 284.393 509.735 288.801 504.913 291.585C504.497 291.825 503.998 292.113 503.534 292.27C505.208 304.384 503.316 318.003 494.253 323.235C491.759 324.675 489.635 323.684 488.339 321.439C485.795 317.033 486.611 307.694 494.509 303.134ZM486.005 283.989C488.693 288.645 494.938 292.356 501.196 291.292C500.136 285.807 498.541 280.742 496.381 277.001C493.693 272.345 490.325 269.967 486.75 272.031C482.011 274.767 484.997 282.243 486.005 283.989ZM518.208 293.11C520.656 297.35 515.768 304.051 512.06 308.188C513.147 309.112 514.743 309.188 516.822 307.988C519.648 306.356 522.433 303.307 524.066 298.263C524.088 297.918 524.206 297.739 524.373 297.643C524.539 297.547 524.801 297.617 524.945 297.866C525.617 299.03 522.792 306.425 516.973 309.785C512.899 312.137 510.263 311.22 508.919 308.893C506.423 304.569 508.24 295.428 513.81 292.212C515.473 291.252 517.152 291.281 518.208 293.11ZM510.994 306.919L511.33 307.501C514.895 303.115 518.194 297.885 516.514 294.975C515.794 293.728 514.626 293.626 513.545 294.25C509.887 296.362 508.978 303.427 510.994 306.919ZM530.916 299.851C535.654 297.115 538.36 287.017 537.524 283.842C536.756 282.512 534.054 282.631 532.059 283.783C526.571 286.951 525.289 295.673 527.209 298.998C527.977 300.328 529.17 300.859 530.916 299.851ZM569.744 267.457C571.04 269.701 573.756 269.796 575.917 268.548C580.407 265.956 580.444 260.836 578.044 256.679C576.988 254.85 575.385 253.226 573.462 252.008C568.638 256.9 567.728 263.965 569.744 267.457ZM532.039 282.021C534.782 280.437 537.309 280.973 538.144 281.267C539.674 266.638 543.969 244.316 544.256 241.933C544.397 241.409 544.751 240.871 545.25 240.583C546.331 239.959 546.68 240.756 546.68 240.756C546.872 241.088 546.85 241.434 546.696 241.744C545.453 246.119 540.368 275.327 539.492 287.25C539.279 290.145 539.766 292.524 540.822 294.353C545.91 303.166 556.003 302.216 565.98 296.456C582.774 286.76 599.4 263.526 591.912 250.556C589.416 246.233 584.433 244.898 577.034 249.17C576.202 249.65 575.419 250.213 574.767 250.811C576.868 252.148 578.698 253.973 579.85 255.968C582.538 260.624 582.243 266.448 576.589 269.712C573.763 271.344 570.26 271.038 568.58 268.129C566.372 264.304 567.208 256.727 572.256 251.263C569.07 249.777 565.14 249.497 561.149 251.801C558.156 253.529 555.678 255.957 554.122 259.405C553.933 259.847 553.649 260.122 553.316 260.314C552.9 260.554 552.472 260.58 552.328 260.33C552.184 260.081 552.289 259.687 552.548 258.984C554.21 255.142 557.318 252.461 560.477 250.637C565.05 247.997 569.754 248.274 573.478 250.115C574.331 249.289 575.281 248.63 576.362 248.006C585.008 243.014 590.909 244.595 593.789 249.584C601.805 263.468 584.635 287.681 566.927 297.905C556.036 304.193 544.954 305.159 539.29 295.348C538.714 294.351 538.257 293.174 537.917 291.818C536.799 294.681 534.191 299.956 530.532 302.068C527.789 303.652 525.726 302.958 524.622 301.046C522.174 296.806 524.224 286.533 532.039 282.021Z" fill="#F54B22"/>
</svg>
