<svg width="418" height="418" viewBox="0 0 418 418" fill="none" xmlns="http://www.w3.org/2000/svg">
<rect width="417.4" height="417.4" fill="#D0FC83"/>
<path d="M182.717 202.92C182.717 200.68 182.717 199.013 182.717 197.92C182.717 196.827 182.717 195.187 182.717 193V184.2C182.717 181.16 182.717 178.12 182.717 175.08V175H187.317C187.824 177.08 188.197 178.627 188.437 179.64C188.704 180.653 189.091 182.173 189.597 184.2L190.277 186.88H190.357L191.037 184.2L191.477 182.4C191.904 180.72 192.211 179.48 192.397 178.68C192.611 177.853 192.917 176.627 193.317 175H197.917V175.08C197.917 177.16 197.917 178.707 197.917 179.72C197.917 180.707 197.917 182.2 197.917 184.2V193C197.917 195.24 197.917 196.907 197.917 198C197.917 199.093 197.917 200.733 197.917 202.92V203H193.517V202.92C193.517 200.68 193.517 199.013 193.517 197.92C193.517 196.827 193.517 195.187 193.517 193V188.6H193.437L192.197 193C191.584 195.133 190.971 197.267 190.357 199.4H190.277C189.664 197.267 189.051 195.133 188.437 193L187.197 188.6H187.117V193C187.117 195.24 187.117 196.907 187.117 198C187.117 199.093 187.117 200.733 187.117 202.92V203H182.717V202.92ZM199.716 203C199.849 201.907 200.022 200.44 200.236 198.6C200.449 196.733 200.662 194.867 200.876 193C201.222 189.987 201.489 187.733 201.676 186.24C201.862 184.747 202.036 183.253 202.196 181.76C202.382 180.24 202.649 177.987 202.996 175H209.596L211.756 193.12C212.022 195.36 212.209 197.027 212.316 198.12C212.449 199.187 212.649 200.813 212.916 203H208.316C208.262 202.253 208.196 201.52 208.116 200.8C207.982 199.6 207.809 197.8 207.596 195.4C207.569 195 207.542 194.6 207.516 194.2C207.489 193.8 207.449 193.4 207.396 193L206.236 180.6H206.156L205.036 193L204.916 194.28C204.729 196.253 204.596 197.72 204.516 198.68C204.436 199.64 204.302 201.08 204.116 203H199.716ZM203.116 194.28H209.956L209.996 198.48H203.156L203.116 194.28ZM214.709 203C214.709 200.733 214.709 199.053 214.709 197.96C214.709 196.84 214.709 195.187 214.709 193V184.96C214.709 182.693 214.709 181.013 214.709 179.92C214.709 178.8 214.709 177.147 214.709 174.96H219.109C219.109 177.227 219.109 178.907 219.109 180C219.109 181.093 219.109 182.747 219.109 184.96V198.8C219.883 198.8 220.456 198.8 220.829 198.8C221.229 198.8 221.616 198.8 221.989 198.8C222.363 198.8 222.936 198.8 223.709 198.8V203H214.709ZM225.491 203C225.491 200.733 225.491 199.053 225.491 197.96C225.491 196.84 225.491 195.187 225.491 193V185C225.491 182.733 225.491 181.053 225.491 179.96C225.491 178.84 225.491 177.187 225.491 175H235.091V179.4C233.917 179.4 233.037 179.4 232.451 179.4C231.891 179.4 231.037 179.4 229.891 179.4V198.6C231.171 198.6 232.117 198.6 232.731 198.6C233.344 198.6 234.264 198.6 235.491 198.6V203H225.491ZM234.291 190.8C233.304 190.8 232.557 190.8 232.051 190.8C231.571 190.8 230.851 190.8 229.891 190.8V186.4C230.877 186.4 231.611 186.4 232.091 186.4C232.597 186.4 233.331 186.4 234.291 186.4V190.8Z" fill="black"/>
<path d="M187.69 233V224.008L184.954 224.744V223.352L188.954 222.44H189.146V233H187.69ZM195.468 233.096C192.828 233.096 191.34 231.16 191.34 227.736C191.34 224.28 192.828 222.344 195.468 222.344C198.156 222.344 199.66 224.28 199.66 227.736C199.66 231.16 198.156 233.096 195.468 233.096ZM195.468 231.816C197.196 231.816 198.188 230.36 198.188 227.736C198.188 225.096 197.196 223.624 195.468 223.624C193.772 223.624 192.812 225.096 192.812 227.736C192.812 230.36 193.772 231.816 195.468 231.816ZM200.949 232.216C200.949 231.672 201.333 231.32 201.957 231.32C202.613 231.32 203.061 231.816 203.061 232.552C203.061 234.536 201.445 235.528 201.445 235.528L200.821 234.76C200.821 234.76 201.893 234.008 201.893 233.096C201.381 233.096 200.949 232.744 200.949 232.216ZM210.858 227.416C212.01 227.816 212.778 228.776 212.778 230.008C212.778 231.864 211.146 233.096 208.714 233.096C206.282 233.096 204.65 231.864 204.65 230.008C204.65 228.776 205.418 227.816 206.57 227.416V227.384C205.786 227.096 205.226 226.216 205.226 225.176C205.226 223.528 206.618 222.344 208.714 222.344C210.81 222.344 212.202 223.528 212.202 225.176C212.202 226.216 211.642 227.096 210.858 227.384V227.416ZM208.714 223.608C207.53 223.608 206.73 224.184 206.73 225.192C206.73 226.104 207.498 226.792 208.714 226.792C209.93 226.792 210.698 226.104 210.698 225.192C210.698 224.184 209.898 223.608 208.714 223.608ZM208.714 231.832C210.266 231.832 211.29 231.032 211.29 229.848C211.29 228.76 210.266 228.088 208.714 228.088C207.162 228.088 206.138 228.76 206.138 229.848C206.138 231.032 207.162 231.832 208.714 231.832ZM220.452 227.416C221.604 227.816 222.372 228.776 222.372 230.008C222.372 231.864 220.74 233.096 218.308 233.096C215.876 233.096 214.244 231.864 214.244 230.008C214.244 228.776 215.012 227.816 216.164 227.416V227.384C215.38 227.096 214.82 226.216 214.82 225.176C214.82 223.528 216.212 222.344 218.308 222.344C220.404 222.344 221.796 223.528 221.796 225.176C221.796 226.216 221.236 227.096 220.452 227.384V227.416ZM218.308 223.608C217.124 223.608 216.324 224.184 216.324 225.192C216.324 226.104 217.092 226.792 218.308 226.792C219.524 226.792 220.292 226.104 220.292 225.192C220.292 224.184 219.492 223.608 218.308 223.608ZM218.308 231.832C219.86 231.832 220.884 231.032 220.884 229.848C220.884 228.76 219.86 228.088 218.308 228.088C216.756 228.088 215.732 228.76 215.732 229.848C215.732 231.032 216.756 231.832 218.308 231.832ZM227.454 222.344C229.902 222.344 231.598 224.12 231.598 227.624C231.598 230.904 229.87 233.096 227.214 233.096C225.39 233.096 224.526 232.344 224.11 231.864L224.926 230.952C225.182 231.256 225.822 231.816 227.102 231.816C228.91 231.816 230.126 230.152 230.126 227.688V227.384L230.062 227.368C229.982 227.816 229.294 229.176 227.166 229.176C225.246 229.176 223.79 227.832 223.79 225.832C223.79 223.736 225.278 222.344 227.454 222.344ZM227.47 227.896C228.926 227.896 229.902 226.984 229.918 225.672C229.582 224.344 228.83 223.624 227.47 223.624C226.19 223.624 225.262 224.52 225.262 225.832C225.262 227.048 226.158 227.896 227.47 227.896ZM182.606 241.352C184.734 241.352 186.206 242.904 186.206 245.24C186.206 247.56 184.734 249.096 182.526 249.096C181.342 249.096 180.462 248.536 179.95 247.752V252.264H178.542V241.448L179.534 241.4C179.646 241.912 179.742 242.856 179.726 243.16H179.742C180.158 242.184 181.054 241.352 182.606 241.352ZM182.446 247.912C183.854 247.912 184.766 246.84 184.766 245.24C184.766 243.624 183.838 242.536 182.35 242.536C180.75 242.536 179.95 243.96 179.95 245.08V245.384C179.95 246.52 180.702 247.912 182.446 247.912ZM191.419 241.352C193.755 241.352 195.307 242.968 195.307 245.256C195.307 247.544 193.755 249.096 191.419 249.096C189.083 249.096 187.531 247.544 187.531 245.256C187.531 242.968 189.083 241.352 191.419 241.352ZM191.419 247.912C192.891 247.912 193.867 246.824 193.867 245.256C193.867 243.688 192.891 242.536 191.419 242.536C189.947 242.536 188.971 243.688 188.971 245.256C188.971 246.824 189.947 247.912 191.419 247.912ZM200.385 241.352C200.721 241.352 201.073 241.4 201.361 241.48L201.009 242.904C200.849 242.808 200.625 242.728 200.305 242.728C199.457 242.728 198.497 243.48 198.497 245.048V249H197.089V241.448L198.081 241.4C198.209 241.976 198.273 242.824 198.273 243.16H198.337C198.625 242.168 199.265 241.352 200.385 241.352ZM207.372 247.464L207.82 248.6C207.82 248.6 207.068 249.096 205.836 249.096C203.884 249.096 203.1 248.056 203.1 246.12V242.584H201.9V241.448H203.1V239.208L204.524 239.128V241.448H207.452V242.584H204.524V246.072C204.524 247.288 204.956 247.896 205.98 247.896C206.86 247.896 207.372 247.464 207.372 247.464ZM212.369 241.352C212.705 241.352 213.057 241.4 213.345 241.48L212.993 242.904C212.833 242.808 212.609 242.728 212.289 242.728C211.441 242.728 210.481 243.48 210.481 245.048V249H209.073V241.448L210.065 241.4C210.193 241.976 210.257 242.824 210.257 243.16H210.321C210.609 242.168 211.249 241.352 212.369 241.352ZM221.28 247.8L221.36 248.984C221.36 248.984 220.992 249.08 220.592 249.08C219.808 249.08 219.232 248.712 219.232 247.832V247.816H219.2C218.992 248.2 218.336 249.096 216.576 249.096C214.912 249.096 214.016 248.232 214.016 247C214.016 245.352 215.584 244.696 218.912 244.696H219.136V244.216C219.136 243.192 218.512 242.536 217.264 242.536C216.192 242.536 215.536 242.968 215.536 243.752C215.536 243.928 215.568 244.024 215.616 244.136L214.288 244.36C214.288 244.36 214.192 244.072 214.192 243.704C214.192 242.328 215.376 241.352 217.296 241.352C219.344 241.352 220.544 242.456 220.544 244.2V247.256C220.544 247.672 220.656 247.832 221.008 247.832C221.104 247.832 221.216 247.816 221.28 247.8ZM216.864 247.912C218.336 247.912 219.136 247.096 219.136 246.392V245.672H218.912C216.336 245.672 215.456 246.136 215.456 246.968C215.456 247.56 215.904 247.912 216.864 247.912ZM224.755 239C224.755 239.544 224.307 239.944 223.763 239.944C223.219 239.944 222.787 239.544 222.787 239C222.787 238.456 223.219 238.04 223.763 238.04C224.307 238.04 224.755 238.456 224.755 239ZM223.011 249V241.448L224.435 241.4V249H223.011ZM231.466 247.464L231.914 248.6C231.914 248.6 231.162 249.096 229.93 249.096C227.978 249.096 227.194 248.056 227.194 246.12V242.584H225.994V241.448H227.194V239.208L228.618 239.128V241.448H231.546V242.584H228.618V246.072C228.618 247.288 229.05 247.896 230.074 247.896C230.954 247.896 231.466 247.464 231.466 247.464ZM237.423 244.152C237.455 244.04 237.471 243.896 237.471 243.784C237.471 243 236.783 242.536 235.791 242.536C234.847 242.536 234.303 242.968 234.303 243.592C234.303 245.368 238.847 244.088 238.895 246.952C238.911 248.312 237.615 249.096 235.775 249.096C233.919 249.096 232.943 248.312 232.511 247.96L233.375 247C233.695 247.304 234.639 247.912 235.791 247.912C236.911 247.912 237.455 247.512 237.455 246.936C237.455 245.384 232.863 246.376 232.863 243.576C232.863 242.328 234.047 241.352 235.823 241.352C237.599 241.352 238.783 242.28 238.783 243.528C238.783 243.832 238.719 244.056 238.719 244.056L237.423 244.152Z" fill="black"/>
<path d="M185.41 364.328C187.73 364.328 189.186 365.608 189.186 367.464C189.186 368.76 188.242 369.688 187.09 369.688V369.72C188.258 369.72 189.554 370.664 189.554 372.168C189.554 373.88 188.034 375.112 185.458 375.112C182.162 375.112 181.282 372.984 181.282 372.984L182.962 371.88C182.962 371.88 183.794 373.16 185.378 373.16C186.546 373.16 187.25 372.664 187.25 371.88C187.266 371.144 186.69 370.664 185.394 370.616L184.29 370.6V368.968L185.042 368.952C186.194 368.904 186.898 368.472 186.898 367.704C186.898 366.872 186.274 366.296 185.346 366.296C184.434 366.296 183.906 366.76 183.906 367.352C183.906 367.496 183.922 367.624 183.954 367.704L181.762 368.056C181.762 368.024 181.666 367.672 181.666 367.208C181.666 365.528 183.154 364.328 185.41 364.328ZM196.353 375V366.312H193.137V364.44H201.841V366.312H198.625V375H196.353ZM205.463 365.032C205.463 365.832 204.823 366.392 204.039 366.392C203.255 366.392 202.631 365.832 202.631 365.032C202.631 364.248 203.255 363.672 204.039 363.672C204.823 363.672 205.463 364.248 205.463 365.032ZM202.935 375V367.448L205.127 367.384V375H202.935ZM216.359 367.368C218.199 367.368 219.159 368.648 219.159 370.376V375H216.967V370.76C216.967 369.848 216.535 369.256 215.655 369.256C214.567 369.256 214.135 370.232 214.135 371.096V375H211.943V370.76C211.943 369.848 211.511 369.256 210.631 369.256C209.559 369.256 209.127 370.232 209.127 371.096V375H206.935V367.448L208.647 367.384C208.807 367.832 208.919 368.648 208.919 368.968H208.967C209.319 368.072 210.039 367.368 211.335 367.368C212.679 367.368 213.543 368.056 213.927 369.08C214.263 368.12 214.999 367.368 216.359 367.368ZM224.824 373.432C225.896 373.432 226.456 372.92 226.776 372.568L227.816 373.768C227.304 374.44 226.2 375.096 224.568 375.096C222.024 375.096 220.504 373.496 220.504 371.224C220.504 368.968 222.024 367.352 224.36 367.352C226.568 367.352 227.832 368.856 227.832 370.92C227.832 371.4 227.768 371.72 227.768 371.72H222.68C222.872 372.728 223.576 373.432 224.824 373.432ZM224.36 369.016C223.496 369.016 222.84 369.576 222.68 370.584H225.832C225.816 369.688 225.272 369.016 224.36 369.016ZM233.423 370.088C233.439 370.024 233.455 369.928 233.455 369.816C233.455 369.208 233.007 368.824 232.239 368.824C231.519 368.824 231.119 369.16 231.119 369.608C231.119 371.128 235.535 369.928 235.551 372.84C235.567 374.2 234.319 375.096 232.255 375.096C229.967 375.096 228.927 374.136 228.735 373.976L229.759 372.648C229.919 372.792 231.039 373.56 232.175 373.56C232.943 373.56 233.311 373.336 233.311 372.968C233.311 371.752 229.087 372.488 229.087 369.736C229.087 368.264 230.367 367.352 232.319 367.352C234.143 367.352 235.423 368.232 235.423 369.464C235.423 369.768 235.359 369.976 235.359 369.976L233.423 370.088ZM153.669 383.384C155.477 383.384 156.613 384.6 156.613 386.408V391H155.189V386.408C155.189 385.304 154.565 384.568 153.429 384.568C152.005 384.568 151.301 385.96 151.301 387.048V391H149.877V386.408C149.877 385.304 149.253 384.568 148.117 384.568C146.693 384.568 145.989 385.96 145.989 387.048V391H144.581V383.448L145.573 383.4C145.701 383.976 145.765 384.824 145.765 385.16C146.149 384.2 146.981 383.384 148.357 383.384C149.701 383.384 150.677 384.056 151.077 385.144C151.477 384.184 152.309 383.384 153.669 383.384ZM162.192 383.352C164.528 383.352 166.08 384.968 166.08 387.256C166.08 389.544 164.528 391.096 162.192 391.096C159.856 391.096 158.304 389.544 158.304 387.256C158.304 384.968 159.856 383.352 162.192 383.352ZM162.192 389.912C163.664 389.912 164.64 388.824 164.64 387.256C164.64 385.688 163.664 384.536 162.192 384.536C160.72 384.536 159.744 385.688 159.744 387.256C159.744 388.824 160.72 389.912 162.192 389.912ZM171.158 383.352C171.494 383.352 171.846 383.4 172.134 383.48L171.782 384.904C171.622 384.808 171.398 384.728 171.078 384.728C170.23 384.728 169.27 385.48 169.27 387.048V391H167.862V383.448L168.854 383.4C168.982 383.976 169.046 384.824 169.046 385.16H169.11C169.398 384.168 170.038 383.352 171.158 383.352ZM179.8 387.608H174.136C174.28 389 175.224 389.912 176.728 389.912C177.88 389.912 178.536 389.368 178.872 388.92L179.736 389.704C179.032 390.632 177.912 391.096 176.616 391.096C174.2 391.096 172.68 389.544 172.68 387.24C172.68 384.984 174.136 383.352 176.424 383.352C178.648 383.352 179.864 384.904 179.864 386.888C179.864 387.336 179.8 387.608 179.8 387.608ZM176.424 384.536C175.208 384.536 174.376 385.384 174.168 386.6H178.424C178.408 385.352 177.624 384.536 176.424 384.536ZM189.802 389.464L190.25 390.6C190.25 390.6 189.498 391.096 188.266 391.096C186.314 391.096 185.53 390.056 185.53 388.12V384.584H184.33V383.448H185.53V381.208L186.954 381.128V383.448H189.882V384.584H186.954V388.072C186.954 389.288 187.386 389.896 188.41 389.896C189.29 389.896 189.802 389.464 189.802 389.464ZM195.439 383.352C197.247 383.352 198.383 384.568 198.383 386.376V391H196.959V386.376C196.959 385.272 196.335 384.536 195.199 384.536C193.631 384.536 192.927 385.928 192.927 387.064V391H191.503V379.704H192.895V384.776H192.927C193.375 383.992 194.175 383.352 195.439 383.352ZM207.382 389.8L207.462 390.984C207.462 390.984 207.094 391.08 206.694 391.08C205.91 391.08 205.334 390.712 205.334 389.832V389.816H205.302C205.094 390.2 204.438 391.096 202.678 391.096C201.014 391.096 200.118 390.232 200.118 389C200.118 387.352 201.686 386.696 205.014 386.696H205.238V386.216C205.238 385.192 204.614 384.536 203.366 384.536C202.294 384.536 201.638 384.968 201.638 385.752C201.638 385.928 201.67 386.024 201.718 386.136L200.39 386.36C200.39 386.36 200.294 386.072 200.294 385.704C200.294 384.328 201.478 383.352 203.398 383.352C205.446 383.352 206.646 384.456 206.646 386.2V389.256C206.646 389.672 206.758 389.832 207.11 389.832C207.206 389.832 207.318 389.816 207.382 389.8ZM202.966 389.912C204.438 389.912 205.238 389.096 205.238 388.392V387.672H205.014C202.438 387.672 201.558 388.136 201.558 388.968C201.558 389.56 202.006 389.912 202.966 389.912ZM213.017 383.352C214.825 383.352 215.961 384.568 215.961 386.376V391H214.537V386.376C214.537 385.272 213.913 384.536 212.777 384.536C211.209 384.536 210.505 385.96 210.505 387.048V391H209.097V383.448L210.089 383.4C210.217 383.976 210.281 384.824 210.281 385.16H210.329C210.729 384.216 211.577 383.352 213.017 383.352ZM231.081 383.448H232.521L230.201 391H228.521L226.937 385.768C226.889 385.592 226.841 385.368 226.825 385.24H226.793C226.777 385.368 226.729 385.592 226.681 385.768L225.033 391H223.385L220.921 383.448H222.505L224.009 388.728C224.121 389.144 224.233 389.432 224.265 389.56H224.297C224.329 389.432 224.441 389.08 224.537 388.728L226.089 383.448H227.545L229.097 388.68C229.193 389.032 229.273 389.432 229.305 389.56H229.337C229.369 389.432 229.449 389.096 229.577 388.68L231.081 383.448ZM237.271 383.352C239.607 383.352 241.159 384.968 241.159 387.256C241.159 389.544 239.607 391.096 237.271 391.096C234.935 391.096 233.383 389.544 233.383 387.256C233.383 384.968 234.935 383.352 237.271 383.352ZM237.271 389.912C238.743 389.912 239.719 388.824 239.719 387.256C239.719 385.688 238.743 384.536 237.271 384.536C235.799 384.536 234.823 385.688 234.823 387.256C234.823 388.824 235.799 389.912 237.271 389.912ZM252.028 383.384C253.836 383.384 254.972 384.6 254.972 386.408V391H253.548V386.408C253.548 385.304 252.924 384.568 251.788 384.568C250.364 384.568 249.66 385.96 249.66 387.048V391H248.236V386.408C248.236 385.304 247.612 384.568 246.476 384.568C245.052 384.568 244.348 385.96 244.348 387.048V391H242.94V383.448L243.932 383.4C244.06 383.976 244.124 384.824 244.124 385.16C244.508 384.2 245.34 383.384 246.716 383.384C248.06 383.384 249.036 384.056 249.436 385.144C249.836 384.184 250.668 383.384 252.028 383.384ZM263.8 387.608H258.136C258.28 389 259.224 389.912 260.728 389.912C261.88 389.912 262.536 389.368 262.872 388.92L263.736 389.704C263.032 390.632 261.912 391.096 260.616 391.096C258.2 391.096 256.68 389.544 256.68 387.24C256.68 384.984 258.136 383.352 260.424 383.352C262.648 383.352 263.864 384.904 263.864 386.888C263.864 387.336 263.8 387.608 263.8 387.608ZM260.424 384.536C259.208 384.536 258.376 385.384 258.168 386.6H262.424C262.408 385.352 261.624 384.536 260.424 384.536ZM269.548 383.352C271.356 383.352 272.492 384.568 272.492 386.376V391H271.068V386.376C271.068 385.272 270.444 384.536 269.308 384.536C267.74 384.536 267.036 385.96 267.036 387.048V391H265.628V383.448L266.62 383.4C266.748 383.976 266.812 384.824 266.812 385.16H266.86C267.26 384.216 268.108 383.352 269.548 383.352Z" fill="black"/>
</svg>
