<svg width="240" height="240" viewBox="0 0 240 240" fill="none" xmlns="http://www.w3.org/2000/svg">
<rect width="240" height="240" fill="#D49EFF"/>
<path d="M92.1203 107.4C91.027 107.4 90.2136 107.4 89.6803 107.4C89.1736 107.4 88.387 107.4 87.3203 107.4V103C88.4136 103 89.2136 103 89.7203 103C90.2536 103 91.0536 103 92.1203 103V107.4ZM82.9203 118C82.9203 115.733 82.9203 114.053 82.9203 112.96C82.9203 111.84 82.9203 110.187 82.9203 108V100C82.9203 97.7333 82.9203 96.0533 82.9203 94.96C82.9203 93.84 82.9203 92.1867 82.9203 90H92.5203V94.4C91.347 94.4 90.467 94.4 89.8803 94.4C89.3203 94.4 88.467 94.4 87.3203 94.4V108C87.3203 110.267 87.3203 111.947 87.3203 113.04C87.3203 114.133 87.3203 115.787 87.3203 118H82.9203ZM94.5219 118C94.5219 115.733 94.5219 114.053 94.5219 112.96C94.5219 111.84 94.5219 110.187 94.5219 108V100C94.5219 97.7333 94.5219 96.0533 94.5219 94.96C94.5219 93.84 94.5219 92.1867 94.5219 90H104.122V94.4C102.949 94.4 102.069 94.4 101.482 94.4C100.922 94.4 100.069 94.4 98.9219 94.4V113.6C100.202 113.6 101.149 113.6 101.762 113.6C102.375 113.6 103.295 113.6 104.522 113.6V118H94.5219ZM103.322 105.8C102.335 105.8 101.589 105.8 101.082 105.8C100.602 105.8 99.8819 105.8 98.9219 105.8V101.4C99.9085 101.4 100.642 101.4 101.122 101.4C101.629 101.4 102.362 101.4 103.322 101.4V105.8ZM106.514 117.92C106.514 115.68 106.514 114.013 106.514 112.92C106.514 111.827 106.514 110.187 106.514 108V99.2C106.514 96.16 106.514 93.12 106.514 90.08V90H111.114C111.621 92.08 111.994 93.6267 112.234 94.64C112.501 95.6533 112.887 97.1733 113.394 99.2L114.074 101.88H114.154L114.834 99.2L115.274 97.4C115.701 95.72 116.007 94.48 116.194 93.68C116.407 92.8533 116.714 91.6267 117.114 90H121.714V90.08C121.714 92.16 121.714 93.7067 121.714 94.72C121.714 95.7067 121.714 97.2 121.714 99.2V108C121.714 110.24 121.714 111.907 121.714 113C121.714 114.093 121.714 115.733 121.714 117.92V118H117.314V117.92C117.314 115.68 117.314 114.013 117.314 112.92C117.314 111.827 117.314 110.187 117.314 108V103.6H117.234L115.994 108C115.381 110.133 114.767 112.267 114.154 114.4H114.074C113.461 112.267 112.847 110.133 112.234 108L110.994 103.6H110.914V108C110.914 110.24 110.914 111.907 110.914 113C110.914 114.093 110.914 115.733 110.914 117.92V118H106.514V117.92ZM123.513 118C123.646 116.907 123.819 115.44 124.033 113.6C124.246 111.733 124.459 109.867 124.673 108C125.019 104.987 125.286 102.733 125.473 101.24C125.659 99.7467 125.833 98.2533 125.993 96.76C126.179 95.24 126.446 92.9867 126.793 90H133.393L135.553 108.12C135.819 110.36 136.006 112.027 136.113 113.12C136.246 114.187 136.446 115.813 136.713 118H132.113C132.059 117.253 131.993 116.52 131.913 115.8C131.779 114.6 131.606 112.8 131.393 110.4C131.366 110 131.339 109.6 131.313 109.2C131.286 108.8 131.246 108.4 131.193 108L130.033 95.6H129.953L128.833 108L128.713 109.28C128.526 111.253 128.393 112.72 128.312 113.68C128.233 114.64 128.099 116.08 127.913 118H123.513ZM126.913 109.28H133.753L133.793 113.48H126.953L126.913 109.28ZM138.506 118C138.506 115.733 138.506 114.053 138.506 112.96C138.506 111.84 138.506 110.187 138.506 108V99.96C138.506 97.6933 138.506 96.0133 138.506 94.92C138.506 93.8 138.506 92.1467 138.506 89.96H142.906C142.906 92.2267 142.906 93.9067 142.906 95C142.906 96.0933 142.906 97.7467 142.906 99.96V113.8C143.68 113.8 144.253 113.8 144.626 113.8C145.026 113.8 145.413 113.8 145.786 113.8C146.16 113.8 146.733 113.8 147.506 113.8V118H138.506ZM149.288 118C149.288 115.733 149.288 114.053 149.288 112.96C149.288 111.84 149.288 110.187 149.288 108V100C149.288 97.7333 149.288 96.0533 149.288 94.96C149.288 93.84 149.288 92.1867 149.288 90H158.888V94.4C157.714 94.4 156.834 94.4 156.248 94.4C155.688 94.4 154.834 94.4 153.688 94.4V113.6C154.968 113.6 155.914 113.6 156.528 113.6C157.141 113.6 158.061 113.6 159.288 113.6V118H149.288ZM158.088 105.8C157.101 105.8 156.354 105.8 155.848 105.8C155.368 105.8 154.648 105.8 153.688 105.8V101.4C154.674 101.4 155.408 101.4 155.888 101.4C156.394 101.4 157.128 101.4 158.088 101.4V105.8Z" fill="black"/>
<path d="M106.016 129.344C108.144 129.344 109.52 130.544 109.52 132.336C109.52 133.664 108.4 134.64 107.36 134.64V134.672C108.432 134.672 109.904 135.52 109.904 137.2C109.904 138.832 108.512 140.096 106.048 140.096C103.072 140.096 102.224 138.112 102.224 138.112L103.392 137.424C103.392 137.424 104.24 138.816 106.048 138.816C107.568 138.816 108.416 138.144 108.432 137.072C108.448 136.016 107.552 135.472 105.808 135.376L105.232 135.344V134.048L105.824 134.016C107.168 133.936 108.048 133.44 108.048 132.448C108.048 131.392 107.232 130.624 106.016 130.624C104.8 130.624 104.016 131.264 104.016 132.112C104.016 132.304 104.048 132.496 104.096 132.608L102.672 132.832C102.64 132.768 102.576 132.544 102.576 132.048C102.576 130.48 103.952 129.344 106.016 129.344ZM111.512 139.216C111.512 138.672 111.896 138.32 112.52 138.32C113.176 138.32 113.624 138.816 113.624 139.552C113.624 141.536 112.008 142.528 112.008 142.528L111.384 141.76C111.384 141.76 112.456 141.008 112.456 140.096C111.944 140.096 111.512 139.744 111.512 139.216ZM119.381 133.264C121.301 133.264 122.757 134.608 122.757 136.608C122.757 138.704 121.269 140.096 119.093 140.096C116.661 140.096 114.933 138.32 114.933 134.816C114.933 131.536 116.693 129.344 119.349 129.344C121.173 129.344 122.021 130.112 122.437 130.576L121.637 131.504C121.381 131.2 120.741 130.624 119.445 130.624C117.637 130.624 116.405 132.272 116.405 134.752V135.088L116.469 135.104C116.549 134.624 117.253 133.264 119.381 133.264ZM119.077 138.816C120.373 138.816 121.285 137.936 121.285 136.608C121.285 135.376 120.405 134.56 119.077 134.56C117.605 134.56 116.629 135.456 116.613 136.768C116.949 138.096 117.717 138.816 119.077 138.816ZM128.405 140.096C125.765 140.096 124.277 138.16 124.277 134.736C124.277 131.28 125.765 129.344 128.405 129.344C131.093 129.344 132.597 131.28 132.597 134.736C132.597 138.16 131.093 140.096 128.405 140.096ZM128.405 138.816C130.133 138.816 131.125 137.36 131.125 134.736C131.125 132.096 130.133 130.624 128.405 130.624C126.709 130.624 125.749 132.096 125.749 134.736C125.749 137.36 126.709 138.816 128.405 138.816ZM136.534 140V131.008L133.798 131.744V130.352L137.798 129.44H137.99V140H136.534ZM94.6059 148.352C96.7339 148.352 98.2059 149.904 98.2059 152.24C98.2059 154.56 96.7339 156.096 94.5259 156.096C93.3419 156.096 92.4619 155.536 91.9499 154.752V159.264H90.5419V148.448L91.5339 148.4C91.6459 148.912 91.7419 149.856 91.7259 150.16H91.7419C92.1579 149.184 93.0539 148.352 94.6059 148.352ZM94.4459 154.912C95.8539 154.912 96.7659 153.84 96.7659 152.24C96.7659 150.624 95.8379 149.536 94.3499 149.536C92.7499 149.536 91.9499 150.96 91.9499 152.08V152.384C91.9499 153.52 92.7019 154.912 94.4459 154.912ZM103.419 148.352C105.755 148.352 107.307 149.968 107.307 152.256C107.307 154.544 105.755 156.096 103.419 156.096C101.083 156.096 99.531 154.544 99.531 152.256C99.531 149.968 101.083 148.352 103.419 148.352ZM103.419 154.912C104.891 154.912 105.867 153.824 105.867 152.256C105.867 150.688 104.891 149.536 103.419 149.536C101.947 149.536 100.971 150.688 100.971 152.256C100.971 153.824 101.947 154.912 103.419 154.912ZM112.385 148.352C112.721 148.352 113.073 148.4 113.361 148.48L113.009 149.904C112.849 149.808 112.625 149.728 112.305 149.728C111.457 149.728 110.497 150.48 110.497 152.048V156H109.089V148.448L110.081 148.4C110.209 148.976 110.273 149.824 110.273 150.16H110.337C110.625 149.168 111.265 148.352 112.385 148.352ZM119.372 154.464L119.82 155.6C119.82 155.6 119.068 156.096 117.836 156.096C115.884 156.096 115.1 155.056 115.1 153.12V149.584H113.9V148.448H115.1V146.208L116.524 146.128V148.448H119.452V149.584H116.524V153.072C116.524 154.288 116.956 154.896 117.98 154.896C118.86 154.896 119.372 154.464 119.372 154.464ZM124.369 148.352C124.705 148.352 125.057 148.4 125.345 148.48L124.993 149.904C124.833 149.808 124.609 149.728 124.289 149.728C123.441 149.728 122.481 150.48 122.481 152.048V156H121.073V148.448L122.065 148.4C122.193 148.976 122.257 149.824 122.257 150.16H122.321C122.609 149.168 123.249 148.352 124.369 148.352ZM133.28 154.8L133.36 155.984C133.36 155.984 132.992 156.08 132.592 156.08C131.808 156.08 131.232 155.712 131.232 154.832V154.816H131.2C130.992 155.2 130.336 156.096 128.576 156.096C126.912 156.096 126.016 155.232 126.016 154C126.016 152.352 127.584 151.696 130.912 151.696H131.136V151.216C131.136 150.192 130.512 149.536 129.264 149.536C128.192 149.536 127.536 149.968 127.536 150.752C127.536 150.928 127.568 151.024 127.616 151.136L126.288 151.36C126.288 151.36 126.192 151.072 126.192 150.704C126.192 149.328 127.376 148.352 129.296 148.352C131.344 148.352 132.544 149.456 132.544 151.2V154.256C132.544 154.672 132.656 154.832 133.008 154.832C133.104 154.832 133.216 154.816 133.28 154.8ZM128.864 154.912C130.336 154.912 131.136 154.096 131.136 153.392V152.672H130.912C128.336 152.672 127.456 153.136 127.456 153.968C127.456 154.56 127.904 154.912 128.864 154.912ZM136.755 146C136.755 146.544 136.307 146.944 135.763 146.944C135.219 146.944 134.787 146.544 134.787 146C134.787 145.456 135.219 145.04 135.763 145.04C136.307 145.04 136.755 145.456 136.755 146ZM135.011 156V148.448L136.435 148.4V156H135.011ZM143.466 154.464L143.914 155.6C143.914 155.6 143.162 156.096 141.93 156.096C139.978 156.096 139.194 155.056 139.194 153.12V149.584H137.994V148.448H139.194V146.208L140.618 146.128V148.448H143.546V149.584H140.618V153.072C140.618 154.288 141.05 154.896 142.074 154.896C142.954 154.896 143.466 154.464 143.466 154.464ZM149.423 151.152C149.455 151.04 149.471 150.896 149.471 150.784C149.471 150 148.783 149.536 147.791 149.536C146.847 149.536 146.303 149.968 146.303 150.592C146.303 152.368 150.847 151.088 150.895 153.952C150.911 155.312 149.615 156.096 147.775 156.096C145.919 156.096 144.943 155.312 144.511 154.96L145.375 154C145.695 154.304 146.639 154.912 147.791 154.912C148.911 154.912 149.455 154.512 149.455 153.936C149.455 152.384 144.863 153.376 144.863 150.576C144.863 149.328 146.047 148.352 147.823 148.352C149.599 148.352 150.783 149.28 150.783 150.528C150.783 150.832 150.719 151.056 150.719 151.056L149.423 151.152Z" fill="black"/>
</svg>
