<svg width="216" height="140" viewBox="0 0 216 140" fill="none" xmlns="http://www.w3.org/2000/svg">
<path d="M146.59 9.112C149.908 9.154 150.86 10.708 150.86 12.598C150.86 14.544 149.488 16.112 147.794 16.112C145.792 16.112 144.504 14.628 144.504 12.01C144.504 9.126 146.618 6.172 149.754 4.772L149.964 5.08C148.13 6.284 147.108 7.628 146.59 9.112ZM147.864 15.468C148.872 15.468 149.39 14.502 149.39 12.906C149.39 11.128 148.718 9.742 146.45 9.574C146.226 10.358 146.142 11.17 146.142 12.01C146.142 14.096 146.8 15.468 147.864 15.468ZM155.728 10.246C157.212 11.17 157.814 12.052 157.814 13.27C157.814 14.936 156.526 16.112 154.678 16.112C152.816 16.112 151.682 15.146 151.682 13.592C151.682 12.43 152.256 11.464 153.67 10.638C152.508 9.854 152.046 9.126 152.046 8.062C152.046 6.62 153.18 5.584 154.734 5.584C156.316 5.584 157.338 6.396 157.338 7.81C157.338 8.818 156.708 9.616 155.728 10.246ZM153.11 7.614C153.11 8.44 153.502 8.944 155.35 10.008C155.896 9.546 156.274 8.846 156.274 7.894C156.274 6.956 155.672 6.228 154.706 6.228C153.726 6.228 153.11 6.774 153.11 7.614ZM154.846 15.468C155.98 15.468 156.736 14.782 156.736 13.746C156.736 12.752 156.05 11.968 154.37 11.058C154.258 11.002 154.146 10.932 154.048 10.876C153.25 11.59 152.9 12.458 152.9 13.326C152.9 14.6 153.628 15.468 154.846 15.468Z" fill="#3E3A36"/>
<path d="M136.59 39.112C139.908 39.154 140.86 40.708 140.86 42.598C140.86 44.544 139.488 46.112 137.794 46.112C135.792 46.112 134.504 44.628 134.504 42.01C134.504 39.126 136.618 36.172 139.754 34.772L139.964 35.08C138.13 36.284 137.108 37.628 136.59 39.112ZM137.864 45.468C138.872 45.468 139.39 44.502 139.39 42.906C139.39 41.128 138.718 39.742 136.45 39.574C136.226 40.358 136.142 41.17 136.142 42.01C136.142 44.096 136.8 45.468 137.864 45.468ZM144.314 46.126C142.592 46.126 141.612 45.328 141.612 44.53C141.612 44.026 141.92 43.704 142.41 43.704C143.46 43.704 143.04 45.468 144.818 45.468C146.008 45.468 146.68 44.614 146.68 43.326C146.68 41.8 145.42 40.792 143.474 40.694V40.288C145.028 39.798 145.686 39.084 145.686 38.006C145.686 36.956 145.252 36.214 144.398 36.214C142.48 36.214 143.642 38.272 142.34 38.272C141.962 38.272 141.71 38.006 141.71 37.586C141.71 36.578 142.886 35.584 144.426 35.584C146.12 35.584 147.086 36.55 147.086 37.866C147.086 38.832 146.316 39.476 145.504 39.84C147.156 40.232 147.87 41.24 147.87 42.836C147.87 44.81 146.4 46.126 144.314 46.126Z" fill="#3E3A36"/>
<path d="M64.476 76.314C67.164 73.71 68.662 71.848 68.662 69.412C68.662 67.998 68.032 67.116 67.052 67.116C65.218 67.116 66.352 69.37 65.036 69.37C64.644 69.37 64.406 69.132 64.406 68.684C64.406 67.578 65.512 66.486 67.192 66.486C69.054 66.486 70.118 67.522 70.118 69.412C70.118 71.47 68.536 73.458 65.778 75.782L68.76 75.754C69.46 75.754 69.852 75.502 70.104 74.928L70.58 74.942L70.398 77H64.476V76.314ZM75.523 71.246C77.007 72.17 77.609 73.052 77.609 74.27C77.609 75.936 76.321 77.112 74.473 77.112C72.611 77.112 71.477 76.146 71.477 74.592C71.477 73.43 72.051 72.464 73.465 71.638C72.303 70.854 71.841 70.126 71.841 69.062C71.841 67.62 72.975 66.584 74.529 66.584C76.111 66.584 77.133 67.396 77.133 68.81C77.133 69.818 76.503 70.616 75.523 71.246ZM72.905 68.614C72.905 69.44 73.297 69.944 75.145 71.008C75.691 70.546 76.069 69.846 76.069 68.894C76.069 67.956 75.467 67.228 74.501 67.228C73.521 67.228 72.905 67.774 72.905 68.614ZM74.641 76.468C75.775 76.468 76.531 75.782 76.531 74.746C76.531 73.752 75.845 72.968 74.165 72.058C74.053 72.002 73.941 71.932 73.843 71.876C73.045 72.59 72.695 73.458 72.695 74.326C72.695 75.6 73.423 76.468 74.641 76.468Z" fill="#3E3A36"/>
<path d="M64.476 106.314C67.164 103.71 68.662 101.848 68.662 99.412C68.662 97.998 68.032 97.116 67.052 97.116C65.218 97.116 66.352 99.37 65.036 99.37C64.644 99.37 64.406 99.132 64.406 98.684C64.406 97.578 65.512 96.486 67.192 96.486C69.054 96.486 70.118 97.522 70.118 99.412C70.118 101.47 68.536 103.458 65.778 105.782L68.76 105.754C69.46 105.754 69.852 105.502 70.104 104.928L70.58 104.942L70.398 107H64.476V106.314ZM74.109 107.126C72.387 107.126 71.407 106.328 71.407 105.53C71.407 105.026 71.715 104.704 72.205 104.704C73.255 104.704 72.835 106.468 74.613 106.468C75.803 106.468 76.475 105.614 76.475 104.326C76.475 102.8 75.215 101.792 73.269 101.694V101.288C74.823 100.798 75.481 100.084 75.481 99.006C75.481 97.956 75.047 97.214 74.193 97.214C72.275 97.214 73.437 99.272 72.135 99.272C71.757 99.272 71.505 99.006 71.505 98.586C71.505 97.578 72.681 96.584 74.221 96.584C75.915 96.584 76.881 97.55 76.881 98.866C76.881 99.832 76.111 100.476 75.299 100.84C76.951 101.232 77.665 102.24 77.665 103.836C77.665 105.81 76.195 107.126 74.109 107.126Z" fill="#3E3A36"/>
<path d="M64.896 135.51C65.106 135.426 65.148 135.23 65.148 134.53V127.488C65.148 126.942 65.106 126.676 64.616 126.55V126.06L66.212 125.612H66.59V134.53C66.59 135.23 66.632 135.426 66.842 135.51V136H64.896V135.51ZM70.2677 129.112C73.5857 129.154 74.5377 130.708 74.5377 132.598C74.5377 134.544 73.1657 136.112 71.4717 136.112C69.4697 136.112 68.1817 134.628 68.1817 132.01C68.1817 129.126 70.2957 126.172 73.4317 124.772L73.6417 125.08C71.8077 126.284 70.7857 127.628 70.2677 129.112ZM71.5417 135.468C72.5497 135.468 73.0677 134.502 73.0677 132.906C73.0677 131.128 72.3957 129.742 70.1277 129.574C69.9037 130.358 69.8197 131.17 69.8197 132.01C69.8197 134.096 70.4777 135.468 71.5417 135.468Z" fill="#3E3A36"/>
<rect width="136" height="20" fill="#F7CD4E"/>
<rect y="30" width="126" height="20" fill="#F7CD4E"/>
<rect y="60" width="56" height="20" fill="#F7CD4E"/>
<rect y="90" width="46" height="20" fill="#F7CD4E"/>
<rect y="120" width="32" height="20" fill="#F7CD4E"/>
<path d="M6.772 14.096C5.968 14.096 5.62 13.808 5.356 13.808C5.188 13.808 5.08 13.868 4.996 14.048H4.552L4.42 11.864L4.852 11.828C5.308 12.968 5.884 13.508 6.748 13.508C7.66 13.508 8.152 12.98 8.152 12.08C8.152 11.276 7.72 10.64 6.256 9.656C5.008 8.816 4.552 8.048 4.552 7.172C4.552 6.02 5.404 5.132 6.664 5.132C7.396 5.132 7.744 5.42 8.032 5.42C8.212 5.42 8.308 5.348 8.368 5.18H8.812L8.932 7.184L8.5 7.22C8.248 6.668 7.744 5.72 6.724 5.72C6.004 5.72 5.584 6.14 5.584 6.752C5.584 7.448 6.064 7.88 7.252 8.744C8.8 9.872 9.244 10.652 9.244 11.732C9.244 13.088 8.248 14.096 6.772 14.096ZM12.1693 14.096C10.9813 14.096 9.98528 12.908 9.98528 11.096C9.98528 9.248 10.8853 7.832 12.3253 7.832C13.1173 7.832 13.7893 8.3 13.7893 8.996C13.7893 9.296 13.5853 9.512 13.2493 9.512C12.9973 9.512 12.8773 9.404 12.8053 9.26C12.7333 9.092 12.7333 8.876 12.6253 8.672C12.5533 8.528 12.4093 8.384 12.1093 8.384C11.6533 8.384 11.1853 8.936 11.1853 10.292C11.1853 11.936 11.7373 13.28 12.6493 13.28C13.2133 13.28 13.4893 12.86 13.6693 12.02L14.1013 12.08C13.9333 13.088 13.5133 14.096 12.1693 14.096ZM19.0536 13.028C19.0536 13.328 19.1616 13.436 19.4016 13.472V13.832C19.2216 13.952 18.9456 14.036 18.6216 14.036C18.1776 14.036 17.9376 13.796 17.9376 13.16C17.5776 13.76 17.0496 14.084 16.4016 14.084C15.5496 14.084 14.9496 13.688 14.9496 12.308V8.78C14.9496 8.504 14.8656 8.432 14.7576 8.396V8H16.3176V8.396C16.2096 8.432 16.1256 8.504 16.1256 8.78V12.092C16.1256 12.992 16.4256 13.268 16.9536 13.268C17.2776 13.268 17.5656 13.136 17.8776 12.752V8.78C17.8776 8.504 17.7936 8.432 17.6856 8.396V8H19.2456V8.396C19.1376 8.432 19.0536 8.504 19.0536 8.78V13.028ZM20.3598 13.604C20.4678 13.568 20.5518 13.496 20.5518 13.22V5.888C20.5518 5.612 20.4678 5.42 20.3598 5.384V4.988H21.9198V5.384C21.8118 5.42 21.7278 5.612 21.7278 5.888V13.22C21.7278 13.496 21.8118 13.568 21.9198 13.604V14H20.3598V13.604ZM25.7816 7.832C26.8256 7.832 27.7856 9.092 27.7856 10.832C27.7856 12.656 26.7536 14.096 25.4336 14.096C24.9296 14.096 24.5936 13.964 24.3176 13.688V15.5C24.3176 15.776 24.4016 15.848 24.5096 15.884V16.28H22.9496V15.884C23.0576 15.848 23.1416 15.776 23.1416 15.5V8.9C23.1416 8.624 23.0576 8.552 22.9496 8.516V8H24.2696V8.696C24.5816 8.192 25.0856 7.832 25.7816 7.832ZM25.4936 13.544C26.0456 13.544 26.5856 12.92 26.5856 11.564C26.5856 9.668 25.9376 8.648 25.1216 8.648C24.8456 8.648 24.5576 8.828 24.3176 9.152V11.768C24.3176 12.728 24.6776 13.544 25.4936 13.544ZM30.2183 14.096C29.3903 14.096 28.9943 13.628 28.9943 12.656V8.54H28.3103V8C29.4023 7.832 29.6063 6.68 29.6903 5.6H30.1703V8H31.3943V8.54H30.1703V12.716C30.1703 13.124 30.3623 13.28 30.6143 13.28C30.9023 13.28 31.0823 13.172 31.1903 12.404L31.5743 12.44C31.4423 13.556 31.0463 14.096 30.2183 14.096ZM36.3857 13.028C36.3857 13.328 36.4937 13.436 36.7337 13.472V13.832C36.5537 13.952 36.2777 14.036 35.9537 14.036C35.5097 14.036 35.2697 13.796 35.2697 13.16C34.9097 13.76 34.3817 14.084 33.7337 14.084C32.8817 14.084 32.2817 13.688 32.2817 12.308V8.78C32.2817 8.504 32.1977 8.432 32.0897 8.396V8H33.6497V8.396C33.5417 8.432 33.4577 8.504 33.4577 8.78V12.092C33.4577 12.992 33.7577 13.268 34.2857 13.268C34.6097 13.268 34.8977 13.136 35.2097 12.752V8.78C35.2097 8.504 35.1257 8.432 35.0177 8.396V8H36.5777V8.396C36.4697 8.432 36.3857 8.504 36.3857 8.78V13.028ZM40.2358 7.916C40.6198 7.916 40.9078 8.156 40.9078 8.636C40.9078 9.14 40.6078 9.368 40.2598 9.368C39.7678 9.368 39.7798 9.068 39.4798 9.068C39.2998 9.068 39.2038 9.188 39.0718 9.572V13.22C39.0718 13.496 39.1558 13.568 39.2638 13.604V14H37.7038V13.604C37.8118 13.568 37.8958 13.496 37.8958 13.22V8.9C37.8958 8.624 37.8118 8.552 37.7038 8.516V8H39.0238V8.984C39.2998 8.288 39.7558 7.916 40.2358 7.916ZM45.0075 12.032L45.4155 12.092C45.2355 13.088 44.6955 14.096 43.3995 14.096C42.2115 14.096 41.2275 12.968 41.2275 11.204C41.2275 9.356 42.0555 7.832 43.3875 7.832C44.3475 7.832 45.0795 8.516 45.3315 10.004L42.5235 11.372C42.7035 12.488 43.1835 13.28 43.8795 13.28C44.4915 13.28 44.8395 12.86 45.0075 12.032ZM43.2435 8.384C42.8355 8.384 42.4395 8.936 42.4395 10.292C42.4395 10.484 42.4515 10.664 42.4635 10.844L44.0355 10.04C43.9755 9.104 43.6875 8.384 43.2435 8.384Z" fill="#3E3A36"/>
<path d="M6.28 41.784H6.184V43.74C6.184 44.22 6.292 44.484 6.52 44.58V45H4.708V44.58C4.888 44.508 4.924 44.364 4.924 43.74V37.488C4.924 36.864 4.888 36.72 4.708 36.648V36.228H6.532C8.704 36.228 9.916 37.176 9.916 38.892C9.916 40.632 8.464 41.784 6.28 41.784ZM6.184 37.152V41.196H6.232C7.756 41.196 8.536 40.452 8.536 39.036C8.536 37.656 7.78 36.828 6.52 36.816C6.304 36.816 6.184 36.936 6.184 37.152ZM14.1866 44.028C14.1866 44.328 14.2946 44.436 14.5346 44.472V44.832C14.3546 44.952 14.0786 45.036 13.7546 45.036C13.3586 45.036 13.1426 44.844 13.0946 44.448C12.8906 44.868 12.4106 45.096 11.8346 45.096C10.9586 45.096 10.3706 44.472 10.3706 43.512C10.3706 42.312 11.2466 41.436 13.0106 41.22V40.428C13.0106 39.708 12.7946 39.384 12.2666 39.384C11.6786 39.384 11.5706 39.732 11.5706 40.2C11.5706 40.5 11.3786 40.752 11.0066 40.752C10.6706 40.752 10.5026 40.524 10.5026 40.212C10.5026 39.468 11.3186 38.832 12.3506 38.832C13.5746 38.832 14.1866 39.468 14.1866 40.776V44.028ZM12.3266 44.484C12.8066 44.484 13.0106 44.124 13.0106 43.56V41.664C12.0266 41.832 11.5706 42.336 11.5706 43.284C11.5706 44.004 11.8346 44.484 12.3266 44.484ZM16.1947 37.74C15.6787 37.74 15.3667 37.356 15.3667 36.9C15.3667 36.456 15.6787 36.072 16.1947 36.072C16.7107 36.072 17.0227 36.456 17.0227 36.9C17.0227 37.356 16.7107 37.74 16.1947 37.74ZM15.4147 44.604C15.5227 44.568 15.6067 44.496 15.6067 44.22V39.78C15.6067 39.504 15.5227 39.432 15.4147 39.396V39H16.9747V39.396C16.8667 39.432 16.7827 39.504 16.7827 39.78V44.22C16.7827 44.496 16.8667 44.568 16.9747 44.604V45H15.4147V44.604ZM22.324 44.22C22.324 44.436 22.384 44.556 22.516 44.604V45H20.956V44.604C21.088 44.556 21.148 44.436 21.148 44.22V40.752C21.148 40.032 20.86 39.648 20.332 39.648C19.96 39.648 19.648 39.816 19.396 40.152V44.22C19.396 44.436 19.456 44.556 19.588 44.604V45H18.028V44.604C18.16 44.556 18.22 44.436 18.22 44.22V39.84C18.22 39.612 18.16 39.504 18.028 39.456V39H19.348V39.684C19.78 39.096 20.344 38.832 20.884 38.832C21.82 38.832 22.324 39.456 22.324 40.596V44.22ZM25.0972 45.096C24.2692 45.096 23.8732 44.628 23.8732 43.656V39.54H23.1892V39C24.2812 38.832 24.4852 37.68 24.5692 36.6H25.0492V39H26.2732V39.54H25.0492V43.716C25.0492 44.124 25.2412 44.28 25.4932 44.28C25.7812 44.28 25.9612 44.172 26.0692 43.404L26.4532 43.44C26.3212 44.556 25.9252 45.096 25.0972 45.096ZM27.7846 37.74C27.2686 37.74 26.9566 37.356 26.9566 36.9C26.9566 36.456 27.2686 36.072 27.7846 36.072C28.3006 36.072 28.6126 36.456 28.6126 36.9C28.6126 37.356 28.3006 37.74 27.7846 37.74ZM27.0046 44.604C27.1126 44.568 27.1966 44.496 27.1966 44.22V39.78C27.1966 39.504 27.1126 39.432 27.0046 39.396V39H28.5646V39.396C28.4566 39.432 28.3726 39.504 28.3726 39.78V44.22C28.3726 44.496 28.4566 44.568 28.5646 44.604V45H27.0046V44.604ZM33.9138 44.22C33.9138 44.436 33.9738 44.556 34.1058 44.604V45H32.5458V44.604C32.6778 44.556 32.7378 44.436 32.7378 44.22V40.752C32.7378 40.032 32.4498 39.648 31.9218 39.648C31.5498 39.648 31.2378 39.816 30.9858 40.152V44.22C30.9858 44.436 31.0458 44.556 31.1778 44.604V45H29.6178V44.604C29.7498 44.556 29.8098 44.436 29.8098 44.22V39.84C29.8098 39.612 29.7498 39.504 29.6178 39.456V39H30.9378V39.684C31.3698 39.096 31.9338 38.832 32.4738 38.832C33.4098 38.832 33.9138 39.456 33.9138 40.596V44.22ZM37.4657 43.8C38.6537 43.944 39.4817 44.28 39.4817 45.456C39.4817 46.572 38.4617 47.388 36.9137 47.388C35.5457 47.388 34.5137 46.824 34.5137 46.092C34.5137 45.732 34.7297 45.504 35.0897 45.504C35.8577 45.504 35.4977 46.884 37.1657 46.884C38.0777 46.884 38.6297 46.512 38.6297 45.804C38.6297 45.156 38.1737 45 37.1057 44.88C35.8457 44.736 35.1737 44.424 35.1737 43.728C35.1737 43.308 35.3537 42.972 35.8097 42.48C35.2817 42.156 34.9577 41.604 34.9577 40.86C34.9577 39.696 35.8697 38.832 37.0217 38.832C37.3217 38.832 37.5977 38.88 37.8497 38.976L38.2337 37.956C38.3537 37.632 38.5937 37.512 38.8097 37.536C39.0857 37.572 39.3257 37.788 39.3017 38.076C39.2897 38.196 39.2177 38.364 39.0737 38.496L38.2577 39.18C38.7617 39.516 39.0737 40.068 39.0737 40.788C39.0737 41.94 38.1617 42.804 37.0217 42.804C36.7457 42.804 36.4697 42.756 36.2297 42.684C36.1097 42.816 36.0137 42.96 36.0137 43.152C36.0137 43.548 36.3617 43.668 37.4657 43.8ZM37.0937 39.372C36.5177 39.372 36.1457 40.092 36.1457 41.112C36.1457 41.868 36.4217 42.264 36.9377 42.264C37.5257 42.264 37.8857 41.568 37.8857 40.548C37.8857 39.768 37.6097 39.372 37.0937 39.372ZM41.6321 45.096C41.0801 45.096 40.9001 44.856 40.5761 44.856C40.4321 44.856 40.3121 44.928 40.2161 45.06L39.8201 44.988L40.0241 43.092H40.4561C40.6601 44.052 41.0561 44.544 41.6441 44.544C42.1481 44.544 42.4121 44.28 42.4001 43.812C42.3881 43.452 42.2321 43.212 41.4401 42.504L40.9841 42.096C40.2281 41.412 39.9761 41.04 39.9761 40.488C39.9761 39.528 40.7441 38.832 41.8001 38.832C42.5921 38.832 43.1561 39.264 43.1561 39.864C43.1561 40.224 42.9521 40.416 42.5921 40.416C41.7521 40.416 42.3761 39.384 41.3921 39.384C41.0441 39.384 40.8161 39.588 40.8161 39.924C40.8161 40.2 40.9121 40.356 41.7641 41.136L42.1841 41.52C43.0601 42.324 43.3121 42.792 43.3121 43.404C43.3121 44.4 42.6281 45.096 41.6321 45.096Z" fill="#3E3A36"/>
<path d="M6.28 71.784H6.184V73.74C6.184 74.22 6.292 74.484 6.52 74.58V75H4.708V74.58C4.888 74.508 4.924 74.364 4.924 73.74V67.488C4.924 66.864 4.888 66.72 4.708 66.648V66.228H6.532C8.704 66.228 9.916 67.176 9.916 68.892C9.916 70.632 8.464 71.784 6.28 71.784ZM6.184 67.152V71.196H6.232C7.756 71.196 8.536 70.452 8.536 69.036C8.536 67.656 7.78 66.828 6.52 66.816C6.304 66.816 6.184 66.936 6.184 67.152ZM13.1772 68.916C13.5612 68.916 13.8492 69.156 13.8492 69.636C13.8492 70.14 13.5492 70.368 13.2012 70.368C12.7092 70.368 12.7212 70.068 12.4212 70.068C12.2412 70.068 12.1452 70.188 12.0132 70.572V74.22C12.0132 74.496 12.0972 74.568 12.2052 74.604V75H10.6452V74.604C10.7532 74.568 10.8372 74.496 10.8372 74.22V69.9C10.8372 69.624 10.7532 69.552 10.6452 69.516V69H11.9652V69.984C12.2412 69.288 12.6972 68.916 13.1772 68.916ZM15.1986 67.74C14.6826 67.74 14.3706 67.356 14.3706 66.9C14.3706 66.456 14.6826 66.072 15.1986 66.072C15.7146 66.072 16.0266 66.456 16.0266 66.9C16.0266 67.356 15.7146 67.74 15.1986 67.74ZM14.4186 74.604C14.5266 74.568 14.6106 74.496 14.6106 74.22V69.78C14.6106 69.504 14.5266 69.432 14.4186 69.396V69H15.9786V69.396C15.8706 69.432 15.7866 69.504 15.7866 69.78V74.22C15.7866 74.496 15.8706 74.568 15.9786 74.604V75H14.4186V74.604ZM21.3279 74.22C21.3279 74.436 21.3879 74.556 21.5199 74.604V75H19.9599V74.604C20.0919 74.556 20.1519 74.436 20.1519 74.22V70.752C20.1519 70.032 19.8639 69.648 19.3359 69.648C18.9639 69.648 18.6519 69.816 18.3999 70.152V74.22C18.3999 74.436 18.4599 74.556 18.5919 74.604V75H17.0319V74.604C17.1639 74.556 17.2239 74.436 17.2239 74.22V69.84C17.2239 69.612 17.1639 69.504 17.0319 69.456V69H18.3519V69.684C18.7839 69.096 19.3479 68.832 19.8879 68.832C20.8239 68.832 21.3279 69.456 21.3279 70.596V74.22ZM24.1011 75.096C23.2731 75.096 22.8771 74.628 22.8771 73.656V69.54H22.1931V69C23.2851 68.832 23.4891 67.68 23.5731 66.6H24.0531V69H25.2771V69.54H24.0531V73.716C24.0531 74.124 24.2451 74.28 24.4971 74.28C24.7851 74.28 24.9651 74.172 25.0731 73.404L25.4571 73.44C25.3251 74.556 24.9291 75.096 24.1011 75.096ZM27.6165 75.096C27.0645 75.096 26.8845 74.856 26.5605 74.856C26.4165 74.856 26.2965 74.928 26.2005 75.06L25.8045 74.988L26.0085 73.092H26.4405C26.6445 74.052 27.0405 74.544 27.6285 74.544C28.1325 74.544 28.3965 74.28 28.3845 73.812C28.3725 73.452 28.2165 73.212 27.4245 72.504L26.9685 72.096C26.2125 71.412 25.9605 71.04 25.9605 70.488C25.9605 69.528 26.7285 68.832 27.7845 68.832C28.5765 68.832 29.1405 69.264 29.1405 69.864C29.1405 70.224 28.9365 70.416 28.5765 70.416C27.7365 70.416 28.3605 69.384 27.3765 69.384C27.0285 69.384 26.8005 69.588 26.8005 69.924C26.8005 70.2 26.8965 70.356 27.7485 71.136L28.1685 71.52C29.0445 72.324 29.2965 72.792 29.2965 73.404C29.2965 74.4 28.6125 75.096 27.6165 75.096Z" fill="#3E3A36"/>
<path d="M4.708 104.58C4.888 104.508 4.924 104.364 4.924 103.74V97.488C4.924 96.864 4.888 96.72 4.708 96.648V96.228H6.58C9.592 96.228 10.96 98.112 10.96 100.488C10.96 103.08 9.256 105 6.736 105H4.708V104.58ZM7.024 104.412C8.644 104.412 9.52 103.32 9.52 100.608C9.52 98.064 8.476 96.804 6.82 96.804C6.424 96.804 6.184 96.936 6.184 97.212V103.704C6.184 104.244 6.388 104.412 7.024 104.412ZM14.4428 98.916C14.8268 98.916 15.1148 99.156 15.1148 99.636C15.1148 100.14 14.8148 100.368 14.4668 100.368C13.9748 100.368 13.9868 100.068 13.6868 100.068C13.5068 100.068 13.4108 100.188 13.2788 100.572V104.22C13.2788 104.496 13.3628 104.568 13.4708 104.604V105H11.9108V104.604C12.0188 104.568 12.1028 104.496 12.1028 104.22V99.9C12.1028 99.624 12.0188 99.552 11.9108 99.516V99H13.2308V99.984C13.5068 99.288 13.9628 98.916 14.4428 98.916ZM19.2374 104.028C19.2374 104.328 19.3454 104.436 19.5854 104.472V104.832C19.4054 104.952 19.1294 105.036 18.8054 105.036C18.4094 105.036 18.1934 104.844 18.1454 104.448C17.9414 104.868 17.4614 105.096 16.8854 105.096C16.0094 105.096 15.4214 104.472 15.4214 103.512C15.4214 102.312 16.2974 101.436 18.0614 101.22V100.428C18.0614 99.708 17.8454 99.384 17.3174 99.384C16.7294 99.384 16.6214 99.732 16.6214 100.2C16.6214 100.5 16.4294 100.752 16.0574 100.752C15.7214 100.752 15.5534 100.524 15.5534 100.212C15.5534 99.468 16.3694 98.832 17.4014 98.832C18.6254 98.832 19.2374 99.468 19.2374 100.776V104.028ZM17.3774 104.484C17.8574 104.484 18.0614 104.124 18.0614 103.56V101.664C17.0774 101.832 16.6214 102.336 16.6214 103.284C16.6214 104.004 16.8854 104.484 17.3774 104.484ZM25.748 99H27.056V99.396C26.864 99.636 26.768 99.78 26.564 100.488L25.232 105.096H24.644L23.504 100.932L22.256 105.096H21.668L20.204 99.816C20.132 99.576 20.048 99.468 19.94 99.396V99H21.536V99.396C21.428 99.468 21.392 99.552 21.392 99.684C21.392 99.816 21.452 99.972 21.524 100.296L22.244 103.404L23.504 99H24.092L25.22 103.476L25.772 101.232C25.892 100.716 25.976 100.344 25.976 100.044C25.976 99.72 25.916 99.552 25.748 99.396V99ZM28.4291 97.74C27.9131 97.74 27.6011 97.356 27.6011 96.9C27.6011 96.456 27.9131 96.072 28.4291 96.072C28.9451 96.072 29.2571 96.456 29.2571 96.9C29.2571 97.356 28.9451 97.74 28.4291 97.74ZM27.6491 104.604C27.7571 104.568 27.8411 104.496 27.8411 104.22V99.78C27.8411 99.504 27.7571 99.432 27.6491 99.396V99H29.2091V99.396C29.1011 99.432 29.0171 99.504 29.0171 99.78V104.22C29.0171 104.496 29.1011 104.568 29.2091 104.604V105H27.6491V104.604ZM34.5584 104.22C34.5584 104.436 34.6184 104.556 34.7504 104.604V105H33.1904V104.604C33.3224 104.556 33.3824 104.436 33.3824 104.22V100.752C33.3824 100.032 33.0944 99.648 32.5664 99.648C32.1944 99.648 31.8824 99.816 31.6304 100.152V104.22C31.6304 104.436 31.6904 104.556 31.8224 104.604V105H30.2624V104.604C30.3944 104.556 30.4544 104.436 30.4544 104.22V99.84C30.4544 99.612 30.3944 99.504 30.2624 99.456V99H31.5824V99.684C32.0144 99.096 32.5784 98.832 33.1184 98.832C34.0544 98.832 34.5584 99.456 34.5584 100.596V104.22ZM38.1102 103.8C39.2982 103.944 40.1262 104.28 40.1262 105.456C40.1262 106.572 39.1062 107.388 37.5582 107.388C36.1902 107.388 35.1582 106.824 35.1582 106.092C35.1582 105.732 35.3742 105.504 35.7342 105.504C36.5022 105.504 36.1422 106.884 37.8102 106.884C38.7222 106.884 39.2742 106.512 39.2742 105.804C39.2742 105.156 38.8182 105 37.7502 104.88C36.4902 104.736 35.8182 104.424 35.8182 103.728C35.8182 103.308 35.9982 102.972 36.4542 102.48C35.9262 102.156 35.6022 101.604 35.6022 100.86C35.6022 99.696 36.5142 98.832 37.6662 98.832C37.9662 98.832 38.2422 98.88 38.4942 98.976L38.8782 97.956C38.9982 97.632 39.2382 97.512 39.4542 97.536C39.7302 97.572 39.9702 97.788 39.9462 98.076C39.9342 98.196 39.8622 98.364 39.7182 98.496L38.9022 99.18C39.4062 99.516 39.7182 100.068 39.7182 100.788C39.7182 101.94 38.8062 102.804 37.6662 102.804C37.3902 102.804 37.1142 102.756 36.8742 102.684C36.7542 102.816 36.6582 102.96 36.6582 103.152C36.6582 103.548 37.0062 103.668 38.1102 103.8ZM37.7382 99.372C37.1622 99.372 36.7902 100.092 36.7902 101.112C36.7902 101.868 37.0662 102.264 37.5822 102.264C38.1702 102.264 38.5302 101.568 38.5302 100.548C38.5302 99.768 38.2542 99.372 37.7382 99.372ZM42.2766 105.096C41.7246 105.096 41.5446 104.856 41.2206 104.856C41.0766 104.856 40.9566 104.928 40.8606 105.06L40.4646 104.988L40.6686 103.092H41.1006C41.3046 104.052 41.7006 104.544 42.2886 104.544C42.7926 104.544 43.0566 104.28 43.0446 103.812C43.0326 103.452 42.8766 103.212 42.0846 102.504L41.6286 102.096C40.8726 101.412 40.6206 101.04 40.6206 100.488C40.6206 99.528 41.3886 98.832 42.4446 98.832C43.2366 98.832 43.8006 99.264 43.8006 99.864C43.8006 100.224 43.5966 100.416 43.2366 100.416C42.3966 100.416 43.0206 99.384 42.0366 99.384C41.6886 99.384 41.4606 99.588 41.4606 99.924C41.4606 100.2 41.5566 100.356 42.4086 101.136L42.8286 101.52C43.7046 102.324 43.9566 102.792 43.9566 103.404C43.9566 104.4 43.2726 105.096 42.2766 105.096Z" fill="#3E3A36"/>
<path d="M6.28 130.784H6.184V132.74C6.184 133.22 6.292 133.484 6.52 133.58V134H4.708V133.58C4.888 133.508 4.924 133.364 4.924 132.74V126.488C4.924 125.864 4.888 125.72 4.708 125.648V125.228H6.532C8.704 125.228 9.916 126.176 9.916 127.892C9.916 129.632 8.464 130.784 6.28 130.784ZM6.184 126.152V130.196H6.232C7.756 130.196 8.536 129.452 8.536 128.036C8.536 126.656 7.78 125.828 6.52 125.816C6.304 125.816 6.184 125.936 6.184 126.152ZM14.9292 133.22C14.9292 133.496 15.0132 133.568 15.1212 133.604V134H13.5612V133.604C13.6692 133.568 13.7532 133.496 13.7532 133.22V129.872C13.7532 128.912 13.3332 128.648 12.9372 128.648C12.5052 128.648 12.2052 128.9 12.0012 129.164V133.22C12.0012 133.496 12.0852 133.568 12.1932 133.604V134H10.6332V133.604C10.7412 133.568 10.8252 133.496 10.8252 133.22V125.804C10.8252 125.528 10.7412 125.456 10.6332 125.42V124.988H12.1932V125.42C12.0852 125.456 12.0012 125.528 12.0012 125.804L11.9652 128.72C12.3372 128.168 12.8532 127.832 13.4412 127.832C14.3412 127.832 14.9292 128.36 14.9292 129.704V133.22ZM18.3973 134.096C16.9933 134.096 15.9733 132.836 15.9733 131.084C15.9733 129.26 17.0653 127.832 18.4213 127.832C19.8253 127.832 20.8453 129.092 20.8453 130.844C20.8453 132.668 19.7533 134.096 18.3973 134.096ZM18.4093 133.544C19.1173 133.544 19.5613 132.428 19.5613 130.964C19.5613 129.524 19.1173 128.384 18.4093 128.384C17.7013 128.384 17.2573 129.536 17.2573 130.964C17.2573 132.368 17.7013 133.544 18.4093 133.544ZM23.2691 134.096C22.4411 134.096 22.0451 133.628 22.0451 132.656V128.54H21.3611V128C22.4531 127.832 22.6571 126.68 22.7411 125.6H23.2211V128H24.4451V128.54H23.2211V132.716C23.2211 133.124 23.4131 133.28 23.6651 133.28C23.9531 133.28 24.1331 133.172 24.2411 132.404L24.6251 132.44C24.4931 133.556 24.0971 134.096 23.2691 134.096ZM27.4324 134.096C26.0284 134.096 25.0084 132.836 25.0084 131.084C25.0084 129.26 26.1004 127.832 27.4564 127.832C28.8604 127.832 29.8804 129.092 29.8804 130.844C29.8804 132.668 28.7884 134.096 27.4324 134.096ZM27.4444 133.544C28.1524 133.544 28.5964 132.428 28.5964 130.964C28.5964 129.524 28.1524 128.384 27.4444 128.384C26.7364 128.384 26.2924 129.536 26.2924 130.964C26.2924 132.368 26.7364 133.544 27.4444 133.544ZM33.1063 132.8C34.2943 132.944 35.1223 133.28 35.1223 134.456C35.1223 135.572 34.1023 136.388 32.5543 136.388C31.1863 136.388 30.1543 135.824 30.1543 135.092C30.1543 134.732 30.3703 134.504 30.7303 134.504C31.4983 134.504 31.1383 135.884 32.8063 135.884C33.7183 135.884 34.2703 135.512 34.2703 134.804C34.2703 134.156 33.8143 134 32.7463 133.88C31.4863 133.736 30.8143 133.424 30.8143 132.728C30.8143 132.308 30.9943 131.972 31.4503 131.48C30.9223 131.156 30.5983 130.604 30.5983 129.86C30.5983 128.696 31.5103 127.832 32.6623 127.832C32.9623 127.832 33.2383 127.88 33.4903 127.976L33.8743 126.956C33.9943 126.632 34.2343 126.512 34.4503 126.536C34.7263 126.572 34.9663 126.788 34.9423 127.076C34.9303 127.196 34.8583 127.364 34.7143 127.496L33.8983 128.18C34.4023 128.516 34.7143 129.068 34.7143 129.788C34.7143 130.94 33.8023 131.804 32.6623 131.804C32.3863 131.804 32.1103 131.756 31.8703 131.684C31.7503 131.816 31.6543 131.96 31.6543 132.152C31.6543 132.548 32.0023 132.668 33.1063 132.8ZM32.7343 128.372C32.1583 128.372 31.7863 129.092 31.7863 130.112C31.7863 130.868 32.0623 131.264 32.5783 131.264C33.1663 131.264 33.5263 130.568 33.5263 129.548C33.5263 128.768 33.2503 128.372 32.7343 128.372ZM38.1967 127.916C38.5807 127.916 38.8687 128.156 38.8687 128.636C38.8687 129.14 38.5687 129.368 38.2207 129.368C37.7287 129.368 37.7407 129.068 37.4407 129.068C37.2607 129.068 37.1647 129.188 37.0327 129.572V133.22C37.0327 133.496 37.1167 133.568 37.2247 133.604V134H35.6647V133.604C35.7727 133.568 35.8567 133.496 35.8567 133.22V128.9C35.8567 128.624 35.7727 128.552 35.6647 128.516V128H36.9847V128.984C37.2607 128.288 37.7167 127.916 38.1967 127.916ZM42.9913 133.028C42.9913 133.328 43.0993 133.436 43.3393 133.472V133.832C43.1593 133.952 42.8833 134.036 42.5593 134.036C42.1633 134.036 41.9473 133.844 41.8993 133.448C41.6953 133.868 41.2153 134.096 40.6393 134.096C39.7633 134.096 39.1753 133.472 39.1753 132.512C39.1753 131.312 40.0513 130.436 41.8153 130.22V129.428C41.8153 128.708 41.5993 128.384 41.0713 128.384C40.4833 128.384 40.3753 128.732 40.3753 129.2C40.3753 129.5 40.1833 129.752 39.8113 129.752C39.4753 129.752 39.3073 129.524 39.3073 129.212C39.3073 128.468 40.1233 127.832 41.1553 127.832C42.3793 127.832 42.9913 128.468 42.9913 129.776V133.028ZM41.1313 133.484C41.6113 133.484 41.8153 133.124 41.8153 132.56V130.664C40.8313 130.832 40.3753 131.336 40.3753 132.284C40.3753 133.004 40.6393 133.484 41.1313 133.484ZM47.0394 127.832C48.0834 127.832 49.0434 129.092 49.0434 130.832C49.0434 132.656 48.0114 134.096 46.6914 134.096C46.1874 134.096 45.8514 133.964 45.5754 133.688V135.5C45.5754 135.776 45.6594 135.848 45.7674 135.884V136.28H44.2074V135.884C44.3154 135.848 44.3994 135.776 44.3994 135.5V128.9C44.3994 128.624 44.3154 128.552 44.2074 128.516V128H45.5274V128.696C45.8394 128.192 46.3434 127.832 47.0394 127.832ZM46.7514 133.544C47.3034 133.544 47.8434 132.92 47.8434 131.564C47.8434 129.668 47.1954 128.648 46.3794 128.648C46.1034 128.648 45.8154 128.828 45.5754 129.152V131.768C45.5754 132.728 45.9354 133.544 46.7514 133.544ZM54.2104 133.22C54.2104 133.496 54.2944 133.568 54.4024 133.604V134H52.8424V133.604C52.9504 133.568 53.0344 133.496 53.0344 133.22V129.872C53.0344 128.912 52.6144 128.648 52.2184 128.648C51.7864 128.648 51.4864 128.9 51.2824 129.164V133.22C51.2824 133.496 51.3664 133.568 51.4744 133.604V134H49.9144V133.604C50.0224 133.568 50.1064 133.496 50.1064 133.22V125.804C50.1064 125.528 50.0224 125.456 49.9144 125.42V124.988H51.4744V125.42C51.3664 125.456 51.2824 125.528 51.2824 125.804L51.2464 128.72C51.6184 128.168 52.1344 127.832 52.7224 127.832C53.6224 127.832 54.2104 128.36 54.2104 129.704V133.22ZM57.0305 134.096C56.4785 134.096 56.2985 133.856 55.9745 133.856C55.8305 133.856 55.7105 133.928 55.6145 134.06L55.2185 133.988L55.4225 132.092H55.8545C56.0585 133.052 56.4545 133.544 57.0425 133.544C57.5465 133.544 57.8105 133.28 57.7985 132.812C57.7865 132.452 57.6305 132.212 56.8385 131.504L56.3825 131.096C55.6265 130.412 55.3745 130.04 55.3745 129.488C55.3745 128.528 56.1425 127.832 57.1985 127.832C57.9905 127.832 58.5545 128.264 58.5545 128.864C58.5545 129.224 58.3505 129.416 57.9905 129.416C57.1505 129.416 57.7745 128.384 56.7905 128.384C56.4425 128.384 56.2145 128.588 56.2145 128.924C56.2145 129.2 56.3105 129.356 57.1625 130.136L57.5825 130.52C58.4585 131.324 58.7105 131.792 58.7105 132.404C58.7105 133.4 58.0265 134.096 57.0305 134.096Z" fill="#3E3A36"/>
</svg>
