<svg width="216" height="140" viewBox="0 0 216 140" fill="none" xmlns="http://www.w3.org/2000/svg">
<rect width="178" height="20" fill="#AD6A08"/>
<rect y="30" width="172" height="20" fill="#AD6A08"/>
<rect y="60" width="166" height="20" fill="#AD6A08"/>
<rect y="90" width="138" height="20" fill="#AD6A08"/>
<rect y="120" width="126" height="20" fill="#AD6A08"/>
<path d="M136.59 128.112C139.908 128.154 140.86 129.708 140.86 131.598C140.86 133.544 139.488 135.112 137.794 135.112C135.792 135.112 134.504 133.628 134.504 131.01C134.504 128.126 136.618 125.172 139.754 123.772L139.964 124.08C138.13 125.284 137.108 126.628 136.59 128.112ZM137.864 134.468C138.872 134.468 139.39 133.502 139.39 131.906C139.39 130.128 138.718 128.742 136.45 128.574C136.226 129.358 136.142 130.17 136.142 131.01C136.142 133.096 136.8 134.468 137.864 134.468ZM144.314 135.126C142.592 135.126 141.612 134.328 141.612 133.53C141.612 133.026 141.92 132.704 142.41 132.704C143.46 132.704 143.04 134.468 144.818 134.468C146.008 134.468 146.68 133.614 146.68 132.326C146.68 130.8 145.42 129.792 143.474 129.694V129.288C145.028 128.798 145.686 128.084 145.686 127.006C145.686 125.956 145.252 125.214 144.398 125.214C142.48 125.214 143.642 127.272 142.34 127.272C141.962 127.272 141.71 127.006 141.71 126.586C141.71 125.578 142.886 124.584 144.426 124.584C146.12 124.584 147.086 125.55 147.086 126.866C147.086 127.832 146.316 128.476 145.504 128.84C147.156 129.232 147.87 130.24 147.87 131.836C147.87 133.81 146.4 135.126 144.314 135.126Z" fill="#3E3A36"/>
<path d="M148.59 99.112C151.908 99.154 152.86 100.708 152.86 102.598C152.86 104.544 151.488 106.112 149.794 106.112C147.792 106.112 146.504 104.628 146.504 102.01C146.504 99.126 148.618 96.172 151.754 94.772L151.964 95.08C150.13 96.284 149.108 97.628 148.59 99.112ZM149.864 105.468C150.872 105.468 151.39 104.502 151.39 102.906C151.39 101.128 150.718 99.742 148.45 99.574C148.226 100.358 148.142 101.17 148.142 102.01C148.142 104.096 148.8 105.468 149.864 105.468ZM156.482 95.584C158.414 95.584 159.66 97.208 159.66 99.812C159.66 102.99 157.924 105.636 154.55 106.98L154.368 106.672C156.23 105.482 157.238 104.418 157.714 102.906C154.662 102.864 153.486 101.394 153.486 99.238C153.486 97.11 154.83 95.584 156.482 95.584ZM157.84 102.444C158.008 101.688 158.078 100.834 158.078 99.812C158.078 97.712 157.42 96.228 156.454 96.228C155.586 96.228 155.012 97.208 155.012 98.972C155.012 100.708 155.894 102.346 157.84 102.444Z" fill="#3E3A36"/>
<path d="M178.564 70.246C180.048 71.17 180.65 72.052 180.65 73.27C180.65 74.936 179.362 76.112 177.514 76.112C175.652 76.112 174.518 75.146 174.518 73.592C174.518 72.43 175.092 71.464 176.506 70.638C175.344 69.854 174.882 69.126 174.882 68.062C174.882 66.62 176.016 65.584 177.57 65.584C179.152 65.584 180.174 66.396 180.174 67.81C180.174 68.818 179.544 69.616 178.564 70.246ZM175.946 67.614C175.946 68.44 176.338 68.944 178.186 70.008C178.732 69.546 179.11 68.846 179.11 67.894C179.11 66.956 178.508 66.228 177.542 66.228C176.562 66.228 175.946 66.774 175.946 67.614ZM177.682 75.468C178.816 75.468 179.572 74.782 179.572 73.746C179.572 72.752 178.886 71.968 177.206 71.058C177.094 71.002 176.982 70.932 176.884 70.876C176.086 71.59 175.736 72.458 175.736 73.326C175.736 74.6 176.464 75.468 177.682 75.468ZM184.3 76.126C182.578 76.126 181.598 75.328 181.598 74.53C181.598 74.026 181.906 73.704 182.396 73.704C183.446 73.704 183.026 75.468 184.804 75.468C185.994 75.468 186.666 74.614 186.666 73.326C186.666 71.8 185.406 70.792 183.46 70.694V70.288C185.014 69.798 185.672 69.084 185.672 68.006C185.672 66.956 185.238 66.214 184.384 66.214C182.466 66.214 183.628 68.272 182.326 68.272C181.948 68.272 181.696 68.006 181.696 67.586C181.696 66.578 182.872 65.584 184.412 65.584C186.106 65.584 187.072 66.55 187.072 67.866C187.072 68.832 186.302 69.476 185.49 69.84C187.142 70.232 187.856 71.24 187.856 72.836C187.856 74.81 186.386 76.126 184.3 76.126Z" fill="#3E3A36"/>
<path d="M184.564 41.246C186.048 42.17 186.65 43.052 186.65 44.27C186.65 45.936 185.362 47.112 183.514 47.112C181.652 47.112 180.518 46.146 180.518 44.592C180.518 43.43 181.092 42.464 182.506 41.638C181.344 40.854 180.882 40.126 180.882 39.062C180.882 37.62 182.016 36.584 183.57 36.584C185.152 36.584 186.174 37.396 186.174 38.81C186.174 39.818 185.544 40.616 184.564 41.246ZM181.946 38.614C181.946 39.44 182.338 39.944 184.186 41.008C184.732 40.546 185.11 39.846 185.11 38.894C185.11 37.956 184.508 37.228 183.542 37.228C182.562 37.228 181.946 37.774 181.946 38.614ZM183.682 46.468C184.816 46.468 185.572 45.782 185.572 44.746C185.572 43.752 184.886 42.968 183.206 42.058C183.094 42.002 182.982 41.932 182.884 41.876C182.086 42.59 181.736 43.458 181.736 44.326C181.736 45.6 182.464 46.468 183.682 46.468ZM189.74 40.112C193.058 40.154 194.01 41.708 194.01 43.598C194.01 45.544 192.638 47.112 190.944 47.112C188.942 47.112 187.654 45.628 187.654 43.01C187.654 40.126 189.768 37.172 192.904 35.772L193.114 36.08C191.28 37.284 190.258 38.628 189.74 40.112ZM191.014 46.468C192.022 46.468 192.54 45.502 192.54 43.906C192.54 42.128 191.868 40.742 189.6 40.574C189.376 41.358 189.292 42.17 189.292 43.01C189.292 45.096 189.95 46.468 191.014 46.468Z" fill="#3E3A36"/>
<path d="M190.564 10.246C192.048 11.17 192.65 12.052 192.65 13.27C192.65 14.936 191.362 16.112 189.514 16.112C187.652 16.112 186.518 15.146 186.518 13.592C186.518 12.43 187.092 11.464 188.506 10.638C187.344 9.854 186.882 9.126 186.882 8.062C186.882 6.62 188.016 5.584 189.57 5.584C191.152 5.584 192.174 6.396 192.174 7.81C192.174 8.818 191.544 9.616 190.564 10.246ZM187.946 7.614C187.946 8.44 188.338 8.944 190.186 10.008C190.732 9.546 191.11 8.846 191.11 7.894C191.11 6.956 190.508 6.228 189.542 6.228C188.562 6.228 187.946 6.774 187.946 7.614ZM189.682 15.468C190.816 15.468 191.572 14.782 191.572 13.746C191.572 12.752 190.886 11.968 189.206 11.058C189.094 11.002 188.982 10.932 188.884 10.876C188.086 11.59 187.736 12.458 187.736 13.326C187.736 14.6 188.464 15.468 189.682 15.468ZM196.468 5.584C198.4 5.584 199.646 7.208 199.646 9.812C199.646 12.99 197.91 15.636 194.536 16.98L194.354 16.672C196.216 15.482 197.224 14.418 197.7 12.906C194.648 12.864 193.472 11.394 193.472 9.238C193.472 7.11 194.816 5.584 196.468 5.584ZM197.826 12.444C197.994 11.688 198.064 10.834 198.064 9.812C198.064 7.712 197.406 6.228 196.44 6.228C195.572 6.228 194.998 7.208 194.998 8.972C194.998 10.708 195.88 12.346 197.826 12.444Z" fill="#3E3A36"/>
<path d="M6.28 100.784H6.184V102.74C6.184 103.22 6.292 103.484 6.52 103.58V104H4.708V103.58C4.888 103.508 4.924 103.364 4.924 102.74V96.488C4.924 95.864 4.888 95.72 4.708 95.648V95.228H6.532C8.704 95.228 9.916 96.176 9.916 97.892C9.916 99.632 8.464 100.784 6.28 100.784ZM6.184 96.152V100.196H6.232C7.756 100.196 8.536 99.452 8.536 98.036C8.536 96.656 7.78 95.828 6.52 95.816C6.304 95.816 6.184 95.936 6.184 96.152ZM14.1866 103.028C14.1866 103.328 14.2946 103.436 14.5346 103.472V103.832C14.3546 103.952 14.0786 104.036 13.7546 104.036C13.3586 104.036 13.1426 103.844 13.0946 103.448C12.8906 103.868 12.4106 104.096 11.8346 104.096C10.9586 104.096 10.3706 103.472 10.3706 102.512C10.3706 101.312 11.2466 100.436 13.0106 100.22V99.428C13.0106 98.708 12.7946 98.384 12.2666 98.384C11.6786 98.384 11.5706 98.732 11.5706 99.2C11.5706 99.5 11.3786 99.752 11.0066 99.752C10.6706 99.752 10.5026 99.524 10.5026 99.212C10.5026 98.468 11.3186 97.832 12.3506 97.832C13.5746 97.832 14.1866 98.468 14.1866 99.776V103.028ZM12.3266 103.484C12.8066 103.484 13.0106 103.124 13.0106 102.56V100.664C12.0266 100.832 11.5706 101.336 11.5706 102.284C11.5706 103.004 11.8346 103.484 12.3266 103.484ZM16.1947 96.74C15.6787 96.74 15.3667 96.356 15.3667 95.9C15.3667 95.456 15.6787 95.072 16.1947 95.072C16.7107 95.072 17.0227 95.456 17.0227 95.9C17.0227 96.356 16.7107 96.74 16.1947 96.74ZM15.4147 103.604C15.5227 103.568 15.6067 103.496 15.6067 103.22V98.78C15.6067 98.504 15.5227 98.432 15.4147 98.396V98H16.9747V98.396C16.8667 98.432 16.7827 98.504 16.7827 98.78V103.22C16.7827 103.496 16.8667 103.568 16.9747 103.604V104H15.4147V103.604ZM22.324 103.22C22.324 103.436 22.384 103.556 22.516 103.604V104H20.956V103.604C21.088 103.556 21.148 103.436 21.148 103.22V99.752C21.148 99.032 20.86 98.648 20.332 98.648C19.96 98.648 19.648 98.816 19.396 99.152V103.22C19.396 103.436 19.456 103.556 19.588 103.604V104H18.028V103.604C18.16 103.556 18.22 103.436 18.22 103.22V98.84C18.22 98.612 18.16 98.504 18.028 98.456V98H19.348V98.684C19.78 98.096 20.344 97.832 20.884 97.832C21.82 97.832 22.324 98.456 22.324 99.596V103.22ZM25.0972 104.096C24.2692 104.096 23.8732 103.628 23.8732 102.656V98.54H23.1892V98C24.2812 97.832 24.4852 96.68 24.5692 95.6H25.0492V98H26.2732V98.54H25.0492V102.716C25.0492 103.124 25.2412 103.28 25.4932 103.28C25.7812 103.28 25.9612 103.172 26.0692 102.404L26.4532 102.44C26.3212 103.556 25.9252 104.096 25.0972 104.096ZM27.7846 96.74C27.2686 96.74 26.9566 96.356 26.9566 95.9C26.9566 95.456 27.2686 95.072 27.7846 95.072C28.3006 95.072 28.6126 95.456 28.6126 95.9C28.6126 96.356 28.3006 96.74 27.7846 96.74ZM27.0046 103.604C27.1126 103.568 27.1966 103.496 27.1966 103.22V98.78C27.1966 98.504 27.1126 98.432 27.0046 98.396V98H28.5646V98.396C28.4566 98.432 28.3726 98.504 28.3726 98.78V103.22C28.3726 103.496 28.4566 103.568 28.5646 103.604V104H27.0046V103.604ZM33.9138 103.22C33.9138 103.436 33.9738 103.556 34.1058 103.604V104H32.5458V103.604C32.6778 103.556 32.7378 103.436 32.7378 103.22V99.752C32.7378 99.032 32.4498 98.648 31.9218 98.648C31.5498 98.648 31.2378 98.816 30.9858 99.152V103.22C30.9858 103.436 31.0458 103.556 31.1778 103.604V104H29.6178V103.604C29.7498 103.556 29.8098 103.436 29.8098 103.22V98.84C29.8098 98.612 29.7498 98.504 29.6178 98.456V98H30.9378V98.684C31.3698 98.096 31.9338 97.832 32.4738 97.832C33.4098 97.832 33.9138 98.456 33.9138 99.596V103.22ZM37.4657 102.8C38.6537 102.944 39.4817 103.28 39.4817 104.456C39.4817 105.572 38.4617 106.388 36.9137 106.388C35.5457 106.388 34.5137 105.824 34.5137 105.092C34.5137 104.732 34.7297 104.504 35.0897 104.504C35.8577 104.504 35.4977 105.884 37.1657 105.884C38.0777 105.884 38.6297 105.512 38.6297 104.804C38.6297 104.156 38.1737 104 37.1057 103.88C35.8457 103.736 35.1737 103.424 35.1737 102.728C35.1737 102.308 35.3537 101.972 35.8097 101.48C35.2817 101.156 34.9577 100.604 34.9577 99.86C34.9577 98.696 35.8697 97.832 37.0217 97.832C37.3217 97.832 37.5977 97.88 37.8497 97.976L38.2337 96.956C38.3537 96.632 38.5937 96.512 38.8097 96.536C39.0857 96.572 39.3257 96.788 39.3017 97.076C39.2897 97.196 39.2177 97.364 39.0737 97.496L38.2577 98.18C38.7617 98.516 39.0737 99.068 39.0737 99.788C39.0737 100.94 38.1617 101.804 37.0217 101.804C36.7457 101.804 36.4697 101.756 36.2297 101.684C36.1097 101.816 36.0137 101.96 36.0137 102.152C36.0137 102.548 36.3617 102.668 37.4657 102.8ZM37.0937 98.372C36.5177 98.372 36.1457 99.092 36.1457 100.112C36.1457 100.868 36.4217 101.264 36.9377 101.264C37.5257 101.264 37.8857 100.568 37.8857 99.548C37.8857 98.768 37.6097 98.372 37.0937 98.372ZM41.6321 104.096C41.0801 104.096 40.9001 103.856 40.5761 103.856C40.4321 103.856 40.3121 103.928 40.2161 104.06L39.8201 103.988L40.0241 102.092H40.4561C40.6601 103.052 41.0561 103.544 41.6441 103.544C42.1481 103.544 42.4121 103.28 42.4001 102.812C42.3881 102.452 42.2321 102.212 41.4401 101.504L40.9841 101.096C40.2281 100.412 39.9761 100.04 39.9761 99.488C39.9761 98.528 40.7441 97.832 41.8001 97.832C42.5921 97.832 43.1561 98.264 43.1561 98.864C43.1561 99.224 42.9521 99.416 42.5921 99.416C41.7521 99.416 42.3761 98.384 41.3921 98.384C41.0441 98.384 40.8161 98.588 40.8161 98.924C40.8161 99.2 40.9121 99.356 41.7641 100.136L42.1841 100.52C43.0601 101.324 43.3121 101.792 43.3121 102.404C43.3121 103.4 42.6281 104.096 41.6321 104.096Z" fill="#FFF9F0"/>
<path d="M7.036 125.804C6.376 125.804 6.184 125.912 6.184 126.26V129.008H8.152C8.44 129.008 8.536 128.912 8.68 128.672H9.076L9.052 129.98H8.656C8.512 129.704 8.416 129.596 8.128 129.596H6.184V132.74C6.184 133.364 6.244 133.508 6.52 133.58V134H4.708V133.58C4.888 133.508 4.924 133.364 4.924 132.74V126.488C4.924 125.864 4.888 125.72 4.708 125.648V125.228H8.32C8.752 125.228 8.908 125.18 9.064 125.012H9.52L9.64 127.04L9.208 127.088C8.812 125.96 8.524 125.804 7.036 125.804ZM11.1674 126.74C10.6514 126.74 10.3394 126.356 10.3394 125.9C10.3394 125.456 10.6514 125.072 11.1674 125.072C11.6834 125.072 11.9954 125.456 11.9954 125.9C11.9954 126.356 11.6834 126.74 11.1674 126.74ZM10.3874 133.604C10.4954 133.568 10.5794 133.496 10.5794 133.22V128.78C10.5794 128.504 10.4954 128.432 10.3874 128.396V128H11.9474V128.396C11.8394 128.432 11.7554 128.504 11.7554 128.78V133.22C11.7554 133.496 11.8394 133.568 11.9474 133.604V134H10.3874V133.604ZM15.3407 132.8C16.5287 132.944 17.3567 133.28 17.3567 134.456C17.3567 135.572 16.3367 136.388 14.7887 136.388C13.4207 136.388 12.3887 135.824 12.3887 135.092C12.3887 134.732 12.6047 134.504 12.9647 134.504C13.7327 134.504 13.3727 135.884 15.0407 135.884C15.9527 135.884 16.5047 135.512 16.5047 134.804C16.5047 134.156 16.0487 134 14.9807 133.88C13.7207 133.736 13.0487 133.424 13.0487 132.728C13.0487 132.308 13.2287 131.972 13.6847 131.48C13.1567 131.156 12.8327 130.604 12.8327 129.86C12.8327 128.696 13.7447 127.832 14.8967 127.832C15.1967 127.832 15.4727 127.88 15.7247 127.976L16.1087 126.956C16.2287 126.632 16.4687 126.512 16.6847 126.536C16.9607 126.572 17.2007 126.788 17.1767 127.076C17.1647 127.196 17.0927 127.364 16.9487 127.496L16.1327 128.18C16.6367 128.516 16.9487 129.068 16.9487 129.788C16.9487 130.94 16.0367 131.804 14.8967 131.804C14.6207 131.804 14.3447 131.756 14.1047 131.684C13.9847 131.816 13.8887 131.96 13.8887 132.152C13.8887 132.548 14.2367 132.668 15.3407 132.8ZM14.9687 128.372C14.3927 128.372 14.0207 129.092 14.0207 130.112C14.0207 130.868 14.2967 131.264 14.8127 131.264C15.4007 131.264 15.7607 130.568 15.7607 129.548C15.7607 128.768 15.4847 128.372 14.9687 128.372ZM22.1591 133.028C22.1591 133.328 22.2671 133.436 22.5071 133.472V133.832C22.3271 133.952 22.0511 134.036 21.7271 134.036C21.2831 134.036 21.0431 133.796 21.0431 133.16C20.6831 133.76 20.1551 134.084 19.5071 134.084C18.6551 134.084 18.0551 133.688 18.0551 132.308V128.78C18.0551 128.504 17.9711 128.432 17.8631 128.396V128H19.4231V128.396C19.3151 128.432 19.2311 128.504 19.2311 128.78V132.092C19.2311 132.992 19.5311 133.268 20.0591 133.268C20.3831 133.268 20.6711 133.136 20.9831 132.752V128.78C20.9831 128.504 20.8991 128.432 20.7911 128.396V128H22.3511V128.396C22.2431 128.432 22.1591 128.504 22.1591 128.78V133.028ZM26.0092 127.916C26.3932 127.916 26.6812 128.156 26.6812 128.636C26.6812 129.14 26.3812 129.368 26.0332 129.368C25.5412 129.368 25.5532 129.068 25.2532 129.068C25.0732 129.068 24.9772 129.188 24.8452 129.572V133.22C24.8452 133.496 24.9292 133.568 25.0372 133.604V134H23.4772V133.604C23.5852 133.568 23.6692 133.496 23.6692 133.22V128.9C23.6692 128.624 23.5852 128.552 23.4772 128.516V128H24.7972V128.984C25.0732 128.288 25.5292 127.916 26.0092 127.916ZM30.7809 132.032L31.1889 132.092C31.0089 133.088 30.4689 134.096 29.1729 134.096C27.9849 134.096 27.0009 132.968 27.0009 131.204C27.0009 129.356 27.8289 127.832 29.1609 127.832C30.1209 127.832 30.8529 128.516 31.1049 130.004L28.2969 131.372C28.4769 132.488 28.9569 133.28 29.6529 133.28C30.2649 133.28 30.6129 132.86 30.7809 132.032ZM29.0169 128.384C28.6089 128.384 28.2129 128.936 28.2129 130.292C28.2129 130.484 28.2249 130.664 28.2369 130.844L29.8089 130.04C29.7489 129.104 29.4609 128.384 29.0169 128.384ZM33.5813 134.096C33.0293 134.096 32.8493 133.856 32.5253 133.856C32.3813 133.856 32.2613 133.928 32.1653 134.06L31.7693 133.988L31.9733 132.092H32.4053C32.6093 133.052 33.0053 133.544 33.5933 133.544C34.0973 133.544 34.3613 133.28 34.3493 132.812C34.3373 132.452 34.1813 132.212 33.3893 131.504L32.9333 131.096C32.1773 130.412 31.9253 130.04 31.9253 129.488C31.9253 128.528 32.6933 127.832 33.7493 127.832C34.5413 127.832 35.1053 128.264 35.1053 128.864C35.1053 129.224 34.9013 129.416 34.5413 129.416C33.7013 129.416 34.3253 128.384 33.3413 128.384C32.9933 128.384 32.7653 128.588 32.7653 128.924C32.7653 129.2 32.8613 129.356 33.7133 130.136L34.1333 130.52C35.0093 131.324 35.2613 131.792 35.2613 132.404C35.2613 133.4 34.5773 134.096 33.5813 134.096Z" fill="#FFF9F0"/>
<path d="M4.708 73.58C4.888 73.508 4.924 73.364 4.924 72.74V66.488C4.924 65.864 4.888 65.72 4.708 65.648V65.228H6.58C9.592 65.228 10.96 67.112 10.96 69.488C10.96 72.08 9.256 74 6.736 74H4.708V73.58ZM7.024 73.412C8.644 73.412 9.52 72.32 9.52 69.608C9.52 67.064 8.476 65.804 6.82 65.804C6.424 65.804 6.184 65.936 6.184 66.212V72.704C6.184 73.244 6.388 73.412 7.024 73.412ZM14.4428 67.916C14.8268 67.916 15.1148 68.156 15.1148 68.636C15.1148 69.14 14.8148 69.368 14.4668 69.368C13.9748 69.368 13.9868 69.068 13.6868 69.068C13.5068 69.068 13.4108 69.188 13.2788 69.572V73.22C13.2788 73.496 13.3628 73.568 13.4708 73.604V74H11.9108V73.604C12.0188 73.568 12.1028 73.496 12.1028 73.22V68.9C12.1028 68.624 12.0188 68.552 11.9108 68.516V68H13.2308V68.984C13.5068 68.288 13.9628 67.916 14.4428 67.916ZM19.2374 73.028C19.2374 73.328 19.3454 73.436 19.5854 73.472V73.832C19.4054 73.952 19.1294 74.036 18.8054 74.036C18.4094 74.036 18.1934 73.844 18.1454 73.448C17.9414 73.868 17.4614 74.096 16.8854 74.096C16.0094 74.096 15.4214 73.472 15.4214 72.512C15.4214 71.312 16.2974 70.436 18.0614 70.22V69.428C18.0614 68.708 17.8454 68.384 17.3174 68.384C16.7294 68.384 16.6214 68.732 16.6214 69.2C16.6214 69.5 16.4294 69.752 16.0574 69.752C15.7214 69.752 15.5534 69.524 15.5534 69.212C15.5534 68.468 16.3694 67.832 17.4014 67.832C18.6254 67.832 19.2374 68.468 19.2374 69.776V73.028ZM17.3774 73.484C17.8574 73.484 18.0614 73.124 18.0614 72.56V70.664C17.0774 70.832 16.6214 71.336 16.6214 72.284C16.6214 73.004 16.8854 73.484 17.3774 73.484ZM25.748 68H27.056V68.396C26.864 68.636 26.768 68.78 26.564 69.488L25.232 74.096H24.644L23.504 69.932L22.256 74.096H21.668L20.204 68.816C20.132 68.576 20.048 68.468 19.94 68.396V68H21.536V68.396C21.428 68.468 21.392 68.552 21.392 68.684C21.392 68.816 21.452 68.972 21.524 69.296L22.244 72.404L23.504 68H24.092L25.22 72.476L25.772 70.232C25.892 69.716 25.976 69.344 25.976 69.044C25.976 68.72 25.916 68.552 25.748 68.396V68ZM28.4291 66.74C27.9131 66.74 27.6011 66.356 27.6011 65.9C27.6011 65.456 27.9131 65.072 28.4291 65.072C28.9451 65.072 29.2571 65.456 29.2571 65.9C29.2571 66.356 28.9451 66.74 28.4291 66.74ZM27.6491 73.604C27.7571 73.568 27.8411 73.496 27.8411 73.22V68.78C27.8411 68.504 27.7571 68.432 27.6491 68.396V68H29.2091V68.396C29.1011 68.432 29.0171 68.504 29.0171 68.78V73.22C29.0171 73.496 29.1011 73.568 29.2091 73.604V74H27.6491V73.604ZM34.5584 73.22C34.5584 73.436 34.6184 73.556 34.7504 73.604V74H33.1904V73.604C33.3224 73.556 33.3824 73.436 33.3824 73.22V69.752C33.3824 69.032 33.0944 68.648 32.5664 68.648C32.1944 68.648 31.8824 68.816 31.6304 69.152V73.22C31.6304 73.436 31.6904 73.556 31.8224 73.604V74H30.2624V73.604C30.3944 73.556 30.4544 73.436 30.4544 73.22V68.84C30.4544 68.612 30.3944 68.504 30.2624 68.456V68H31.5824V68.684C32.0144 68.096 32.5784 67.832 33.1184 67.832C34.0544 67.832 34.5584 68.456 34.5584 69.596V73.22ZM38.1102 72.8C39.2982 72.944 40.1262 73.28 40.1262 74.456C40.1262 75.572 39.1062 76.388 37.5582 76.388C36.1902 76.388 35.1582 75.824 35.1582 75.092C35.1582 74.732 35.3742 74.504 35.7342 74.504C36.5022 74.504 36.1422 75.884 37.8102 75.884C38.7222 75.884 39.2742 75.512 39.2742 74.804C39.2742 74.156 38.8182 74 37.7502 73.88C36.4902 73.736 35.8182 73.424 35.8182 72.728C35.8182 72.308 35.9982 71.972 36.4542 71.48C35.9262 71.156 35.6022 70.604 35.6022 69.86C35.6022 68.696 36.5142 67.832 37.6662 67.832C37.9662 67.832 38.2422 67.88 38.4942 67.976L38.8782 66.956C38.9982 66.632 39.2382 66.512 39.4542 66.536C39.7302 66.572 39.9702 66.788 39.9462 67.076C39.9342 67.196 39.8622 67.364 39.7182 67.496L38.9022 68.18C39.4062 68.516 39.7182 69.068 39.7182 69.788C39.7182 70.94 38.8062 71.804 37.6662 71.804C37.3902 71.804 37.1142 71.756 36.8742 71.684C36.7542 71.816 36.6582 71.96 36.6582 72.152C36.6582 72.548 37.0062 72.668 38.1102 72.8ZM37.7382 68.372C37.1622 68.372 36.7902 69.092 36.7902 70.112C36.7902 70.868 37.0662 71.264 37.5822 71.264C38.1702 71.264 38.5302 70.568 38.5302 69.548C38.5302 68.768 38.2542 68.372 37.7382 68.372ZM42.2766 74.096C41.7246 74.096 41.5446 73.856 41.2206 73.856C41.0766 73.856 40.9566 73.928 40.8606 74.06L40.4646 73.988L40.6686 72.092H41.1006C41.3046 73.052 41.7006 73.544 42.2886 73.544C42.7926 73.544 43.0566 73.28 43.0446 72.812C43.0326 72.452 42.8766 72.212 42.0846 71.504L41.6286 71.096C40.8726 70.412 40.6206 70.04 40.6206 69.488C40.6206 68.528 41.3886 67.832 42.4446 67.832C43.2366 67.832 43.8006 68.264 43.8006 68.864C43.8006 69.224 43.5966 69.416 43.2366 69.416C42.3966 69.416 43.0206 68.384 42.0366 68.384C41.6886 68.384 41.4606 68.588 41.4606 68.924C41.4606 69.2 41.5566 69.356 42.4086 70.136L42.8286 70.52C43.7046 71.324 43.9566 71.792 43.9566 72.404C43.9566 73.4 43.2726 74.096 42.2766 74.096Z" fill="#FFF9F0"/>
<path d="M6.28 10.784H6.184V12.74C6.184 13.22 6.292 13.484 6.52 13.58V14H4.708V13.58C4.888 13.508 4.924 13.364 4.924 12.74V6.488C4.924 5.864 4.888 5.72 4.708 5.648V5.228H6.532C8.704 5.228 9.916 6.176 9.916 7.892C9.916 9.632 8.464 10.784 6.28 10.784ZM6.184 6.152V10.196H6.232C7.756 10.196 8.536 9.452 8.536 8.036C8.536 6.656 7.78 5.828 6.52 5.816C6.304 5.816 6.184 5.936 6.184 6.152ZM13.1772 7.916C13.5612 7.916 13.8492 8.156 13.8492 8.636C13.8492 9.14 13.5492 9.368 13.2012 9.368C12.7092 9.368 12.7212 9.068 12.4212 9.068C12.2412 9.068 12.1452 9.188 12.0132 9.572V13.22C12.0132 13.496 12.0972 13.568 12.2052 13.604V14H10.6452V13.604C10.7532 13.568 10.8372 13.496 10.8372 13.22V8.9C10.8372 8.624 10.7532 8.552 10.6452 8.516V8H11.9652V8.984C12.2412 8.288 12.6972 7.916 13.1772 7.916ZM15.1986 6.74C14.6826 6.74 14.3706 6.356 14.3706 5.9C14.3706 5.456 14.6826 5.072 15.1986 5.072C15.7146 5.072 16.0266 5.456 16.0266 5.9C16.0266 6.356 15.7146 6.74 15.1986 6.74ZM14.4186 13.604C14.5266 13.568 14.6106 13.496 14.6106 13.22V8.78C14.6106 8.504 14.5266 8.432 14.4186 8.396V8H15.9786V8.396C15.8706 8.432 15.7866 8.504 15.7866 8.78V13.22C15.7866 13.496 15.8706 13.568 15.9786 13.604V14H14.4186V13.604ZM21.3279 13.22C21.3279 13.436 21.3879 13.556 21.5199 13.604V14H19.9599V13.604C20.0919 13.556 20.1519 13.436 20.1519 13.22V9.752C20.1519 9.032 19.8639 8.648 19.3359 8.648C18.9639 8.648 18.6519 8.816 18.3999 9.152V13.22C18.3999 13.436 18.4599 13.556 18.5919 13.604V14H17.0319V13.604C17.1639 13.556 17.2239 13.436 17.2239 13.22V8.84C17.2239 8.612 17.1639 8.504 17.0319 8.456V8H18.3519V8.684C18.7839 8.096 19.3479 7.832 19.8879 7.832C20.8239 7.832 21.3279 8.456 21.3279 9.596V13.22ZM24.1011 14.096C23.2731 14.096 22.8771 13.628 22.8771 12.656V8.54H22.1931V8C23.2851 7.832 23.4891 6.68 23.5731 5.6H24.0531V8H25.2771V8.54H24.0531V12.716C24.0531 13.124 24.2451 13.28 24.4971 13.28C24.7851 13.28 24.9651 13.172 25.0731 12.404L25.4571 12.44C25.3251 13.556 24.9291 14.096 24.1011 14.096ZM27.6165 14.096C27.0645 14.096 26.8845 13.856 26.5605 13.856C26.4165 13.856 26.2965 13.928 26.2005 14.06L25.8045 13.988L26.0085 12.092H26.4405C26.6445 13.052 27.0405 13.544 27.6285 13.544C28.1325 13.544 28.3965 13.28 28.3845 12.812C28.3725 12.452 28.2165 12.212 27.4245 11.504L26.9685 11.096C26.2125 10.412 25.9605 10.04 25.9605 9.488C25.9605 8.528 26.7285 7.832 27.7845 7.832C28.5765 7.832 29.1405 8.264 29.1405 8.864C29.1405 9.224 28.9365 9.416 28.5765 9.416C27.7365 9.416 28.3605 8.384 27.3765 8.384C27.0285 8.384 26.8005 8.588 26.8005 8.924C26.8005 9.2 26.8965 9.356 27.7485 10.136L28.1685 10.52C29.0445 11.324 29.2965 11.792 29.2965 12.404C29.2965 13.4 28.6125 14.096 27.6165 14.096Z" fill="#FFF9F0"/>
<path d="M7.984 44.096C5.764 44.096 4.432 42.332 4.432 39.68C4.432 37.16 6.028 35.132 7.888 35.132C8.788 35.132 9.088 35.42 9.436 35.42C9.616 35.42 9.712 35.36 9.808 35.18H10.252L10.372 37.184L9.94 37.22C9.472 36.2 8.872 35.72 7.984 35.72C6.64 35.72 5.872 37.136 5.872 39.488C5.872 42.296 6.892 43.508 8.164 43.508C8.908 43.508 9.352 43.1 9.352 42.356V40.352C9.352 39.728 9.316 39.584 9.136 39.512V39.092H10.78V39.512C10.6 39.584 10.564 39.728 10.564 40.352V42.884C10.564 43.1 10.588 43.184 10.684 43.28L10.696 43.628C9.496 43.616 9.448 44.096 7.984 44.096ZM14.2905 37.916C14.6745 37.916 14.9625 38.156 14.9625 38.636C14.9625 39.14 14.6625 39.368 14.3145 39.368C13.8225 39.368 13.8345 39.068 13.5345 39.068C13.3545 39.068 13.2585 39.188 13.1265 39.572V43.22C13.1265 43.496 13.2105 43.568 13.3185 43.604V44H11.7585V43.604C11.8665 43.568 11.9505 43.496 11.9505 43.22V38.9C11.9505 38.624 11.8665 38.552 11.7585 38.516V38H13.0785V38.984C13.3545 38.288 13.8105 37.916 14.2905 37.916ZM19.085 43.028C19.085 43.328 19.193 43.436 19.433 43.472V43.832C19.253 43.952 18.977 44.036 18.653 44.036C18.257 44.036 18.041 43.844 17.993 43.448C17.789 43.868 17.309 44.096 16.733 44.096C15.857 44.096 15.269 43.472 15.269 42.512C15.269 41.312 16.145 40.436 17.909 40.22V39.428C17.909 38.708 17.693 38.384 17.165 38.384C16.577 38.384 16.469 38.732 16.469 39.2C16.469 39.5 16.277 39.752 15.905 39.752C15.569 39.752 15.401 39.524 15.401 39.212C15.401 38.468 16.217 37.832 17.249 37.832C18.473 37.832 19.085 38.468 19.085 39.776V43.028ZM17.225 43.484C17.705 43.484 17.909 43.124 17.909 42.56V40.664C16.925 40.832 16.469 41.336 16.469 42.284C16.469 43.004 16.733 43.484 17.225 43.484ZM23.1332 37.832C24.1772 37.832 25.1372 39.092 25.1372 40.832C25.1372 42.656 24.1052 44.096 22.7852 44.096C22.2812 44.096 21.9452 43.964 21.6692 43.688V45.5C21.6692 45.776 21.7532 45.848 21.8612 45.884V46.28H20.3012V45.884C20.4092 45.848 20.4932 45.776 20.4932 45.5V38.9C20.4932 38.624 20.4092 38.552 20.3012 38.516V38H21.6212V38.696C21.9332 38.192 22.4372 37.832 23.1332 37.832ZM22.8452 43.544C23.3972 43.544 23.9372 42.92 23.9372 41.564C23.9372 39.668 23.2892 38.648 22.4732 38.648C22.1972 38.648 21.9092 38.828 21.6692 39.152V41.768C21.6692 42.728 22.0292 43.544 22.8452 43.544ZM30.3042 43.22C30.3042 43.496 30.3882 43.568 30.4962 43.604V44H28.9362V43.604C29.0442 43.568 29.1282 43.496 29.1282 43.22V39.872C29.1282 38.912 28.7082 38.648 28.3122 38.648C27.8802 38.648 27.5802 38.9 27.3762 39.164V43.22C27.3762 43.496 27.4602 43.568 27.5682 43.604V44H26.0082V43.604C26.1162 43.568 26.2002 43.496 26.2002 43.22V35.804C26.2002 35.528 26.1162 35.456 26.0082 35.42V34.988H27.5682V35.42C27.4602 35.456 27.3762 35.528 27.3762 35.804L27.3402 38.72C27.7122 38.168 28.2282 37.832 28.8162 37.832C29.7162 37.832 30.3042 38.36 30.3042 39.704V43.22ZM32.2963 36.74C31.7803 36.74 31.4683 36.356 31.4683 35.9C31.4683 35.456 31.7803 35.072 32.2963 35.072C32.8123 35.072 33.1243 35.456 33.1243 35.9C33.1243 36.356 32.8123 36.74 32.2963 36.74ZM31.5163 43.604C31.6243 43.568 31.7083 43.496 31.7083 43.22V38.78C31.7083 38.504 31.6243 38.432 31.5163 38.396V38H33.0763V38.396C32.9683 38.432 32.8843 38.504 32.8843 38.78V43.22C32.8843 43.496 32.9683 43.568 33.0763 43.604V44H31.5163V43.604ZM36.1576 44.096C34.9696 44.096 33.9736 42.908 33.9736 41.096C33.9736 39.248 34.8736 37.832 36.3136 37.832C37.1056 37.832 37.7776 38.3 37.7776 38.996C37.7776 39.296 37.5736 39.512 37.2376 39.512C36.9856 39.512 36.8656 39.404 36.7936 39.26C36.7216 39.092 36.7216 38.876 36.6136 38.672C36.5416 38.528 36.3976 38.384 36.0976 38.384C35.6416 38.384 35.1736 38.936 35.1736 40.292C35.1736 41.936 35.7256 43.28 36.6376 43.28C37.2016 43.28 37.4776 42.86 37.6576 42.02L38.0896 42.08C37.9216 43.088 37.5016 44.096 36.1576 44.096ZM44.6905 43.028C44.6905 43.328 44.7985 43.436 45.0385 43.472V43.832C44.8585 43.952 44.5825 44.036 44.2585 44.036C43.8625 44.036 43.6465 43.844 43.5985 43.448C43.3945 43.868 42.9145 44.096 42.3385 44.096C41.4625 44.096 40.8745 43.472 40.8745 42.512C40.8745 41.312 41.7505 40.436 43.5145 40.22V39.428C43.5145 38.708 43.2985 38.384 42.7705 38.384C42.1825 38.384 42.0745 38.732 42.0745 39.2C42.0745 39.5 41.8825 39.752 41.5105 39.752C41.1745 39.752 41.0065 39.524 41.0065 39.212C41.0065 38.468 41.8225 37.832 42.8545 37.832C44.0785 37.832 44.6905 38.468 44.6905 39.776V43.028ZM42.8305 43.484C43.3105 43.484 43.5145 43.124 43.5145 42.56V40.664C42.5305 40.832 42.0745 41.336 42.0745 42.284C42.0745 43.004 42.3385 43.484 42.8305 43.484ZM48.4506 37.916C48.8346 37.916 49.1226 38.156 49.1226 38.636C49.1226 39.14 48.8226 39.368 48.4746 39.368C47.9826 39.368 47.9946 39.068 47.6946 39.068C47.5146 39.068 47.4186 39.188 47.2866 39.572V43.22C47.2866 43.496 47.3706 43.568 47.4786 43.604V44H45.9186V43.604C46.0266 43.568 46.1106 43.496 46.1106 43.22V38.9C46.1106 38.624 46.0266 38.552 45.9186 38.516V38H47.2386V38.984C47.5146 38.288 47.9706 37.916 48.4506 37.916ZM51.3121 44.096C50.4841 44.096 50.0881 43.628 50.0881 42.656V38.54H49.4041V38C50.4961 37.832 50.7001 36.68 50.7841 35.6H51.2641V38H52.4881V38.54H51.2641V42.716C51.2641 43.124 51.4561 43.28 51.7081 43.28C51.9961 43.28 52.1761 43.172 52.2841 42.404L52.6681 42.44C52.5361 43.556 52.1401 44.096 51.3121 44.096ZM54.8274 44.096C54.2754 44.096 54.0954 43.856 53.7714 43.856C53.6274 43.856 53.5074 43.928 53.4114 44.06L53.0154 43.988L53.2194 42.092H53.6514C53.8554 43.052 54.2514 43.544 54.8394 43.544C55.3434 43.544 55.6074 43.28 55.5954 42.812C55.5834 42.452 55.4274 42.212 54.6354 41.504L54.1794 41.096C53.4234 40.412 53.1714 40.04 53.1714 39.488C53.1714 38.528 53.9394 37.832 54.9954 37.832C55.7874 37.832 56.3514 38.264 56.3514 38.864C56.3514 39.224 56.1474 39.416 55.7874 39.416C54.9474 39.416 55.5714 38.384 54.5874 38.384C54.2394 38.384 54.0114 38.588 54.0114 38.924C54.0114 39.2 54.1074 39.356 54.9594 40.136L55.3794 40.52C56.2554 41.324 56.5074 41.792 56.5074 42.404C56.5074 43.4 55.8234 44.096 54.8274 44.096Z" fill="#FFF9F0"/>
</svg>
